{"glyphs":{"0":{"ha":760,"x_min":54,"x_max":705,"o":"m 54 543 q 188 1006 54 868 q 380 1085 267 1085 q 572 1006 492 1085 q 705 543 705 868 q 572 79 705 217 q 380 0 492 0 q 188 79 267 0 q 54 543 54 217 m 163 543 q 264 157 163 271 q 380 109 313 109 q 495 157 447 109 q 597 543 597 271 q 495 928 597 814 q 380 977 447 977 q 264 928 313 977 q 163 543 163 814 z "},"1":{"ha":380,"x_min":54,"x_max":326,"o":"m 54 977 q 71 1015 54 999 q 89 1027 79 1023 l 252 1082 q 271 1085 260 1085 q 310 1069 294 1085 q 326 1031 326 1053 l 326 54 q 310 16 326 32 q 271 0 294 0 q 233 16 249 0 q 217 54 217 32 l 217 956 l 130 926 q 109 922 119 922 q 70 938 86 922 q 54 977 54 954 z "},"2":{"ha":760,"x_min":54,"x_max":705,"o":"m 54 54 q 70 93 54 77 l 533 606 q 597 760 597 669 q 533 913 597 850 q 380 977 470 977 q 226 913 290 977 q 163 760 163 850 q 147 721 163 737 q 109 705 131 705 q 70 721 86 705 q 54 760 54 737 q 150 990 54 895 q 380 1085 245 1085 q 610 990 515 1085 q 705 760 705 895 q 610 529 705 625 l 231 109 l 651 109 q 689 93 673 109 q 705 54 705 77 q 689 16 705 32 q 651 0 673 0 l 109 0 q 70 16 86 0 q 54 54 54 32 z "},"3":{"ha":760,"x_min":54,"x_max":705,"o":"m 54 326 q 70 364 54 348 q 109 380 86 380 q 147 364 131 380 q 163 326 163 348 q 226 172 163 235 q 380 109 290 109 q 533 172 470 109 q 597 326 597 235 q 533 479 597 416 q 380 543 470 543 q 341 558 357 543 q 326 597 326 574 q 341 635 326 619 q 380 651 357 651 q 495 699 447 651 q 543 814 543 747 q 495 929 543 881 q 380 977 447 977 q 265 929 313 977 q 217 814 217 881 q 201 775 217 791 q 163 760 185 760 q 124 775 140 760 q 109 814 109 791 q 188 1006 109 926 q 380 1085 267 1085 q 572 1006 492 1085 q 651 814 651 926 q 551 603 651 694 q 610 556 583 583 q 705 326 705 460 q 610 95 705 191 q 380 0 515 0 q 150 95 245 0 q 54 326 54 191 z "},"4":{"ha":868,"x_min":54,"x_max":814,"o":"m 54 326 q 64 357 54 343 l 553 1063 q 597 1085 568 1085 q 635 1069 619 1085 q 651 1031 651 1053 l 651 380 l 760 380 q 798 364 782 380 q 814 326 814 348 q 798 287 814 303 q 760 271 782 271 l 651 271 l 651 54 q 635 16 651 32 q 597 0 619 0 q 558 16 574 0 q 543 54 543 32 l 543 271 l 109 271 q 70 287 86 271 q 54 326 54 303 m 212 380 l 543 380 l 543 857 l 212 380 z "},"5":{"ha":814,"x_min":54,"x_max":760,"o":"m 54 353 q 70 391 54 375 q 109 407 86 407 q 147 391 131 407 q 163 353 163 375 q 234 180 163 252 q 407 109 306 109 q 579 180 508 109 q 651 353 651 252 q 579 525 651 454 q 407 597 508 597 l 163 597 q 124 613 140 597 q 109 651 109 629 l 109 1031 q 124 1069 109 1053 q 163 1085 140 1085 l 651 1085 q 689 1069 673 1085 q 705 1031 705 1053 q 689 992 705 1008 q 651 977 673 977 l 217 977 l 217 705 l 407 705 q 656 602 553 705 q 760 353 760 498 q 656 103 760 207 q 407 0 553 0 q 158 103 261 0 q 54 353 54 207 z "},"6":{"ha":760,"x_min":54,"x_max":705,"o":"m 54 326 q 106 503 54 425 l 439 1055 q 450 1069 444 1063 q 488 1085 466 1085 q 527 1069 511 1085 q 543 1031 543 1053 q 535 1003 543 1015 l 319 646 q 380 651 349 651 q 610 556 515 651 q 705 326 705 460 q 610 95 705 191 q 380 0 515 0 q 150 95 245 0 q 54 326 54 191 m 163 326 q 226 172 163 235 q 380 109 290 109 q 533 172 470 109 q 597 326 597 235 q 533 479 597 416 q 380 543 470 543 q 226 479 290 543 q 163 326 163 416 z "},"7":{"ha":760,"x_min":54,"x_max":705,"o":"m 54 54 q 65 87 54 71 l 559 977 l 109 977 q 70 992 86 977 q 54 1031 54 1008 q 70 1069 54 1053 q 109 1085 86 1085 l 651 1085 q 689 1069 673 1085 q 705 1031 705 1053 q 697 1002 705 1015 l 157 31 q 147 16 153 22 q 109 0 131 0 q 70 16 86 0 q 54 54 54 32 z "},"8":{"ha":760,"x_min":54,"x_max":705,"o":"m 54 326 q 150 556 54 460 q 208 603 177 583 q 188 622 198 612 q 109 814 109 701 q 188 1006 109 926 q 380 1085 267 1085 q 572 1006 492 1085 q 651 814 651 926 q 572 622 651 701 q 551 603 562 612 q 610 556 583 583 q 705 326 705 460 q 610 95 705 191 q 380 0 515 0 q 150 95 245 0 q 54 326 54 191 m 163 326 q 226 172 163 235 q 380 109 290 109 q 533 172 470 109 q 597 326 597 235 q 533 479 597 416 q 380 543 470 543 q 226 479 290 543 q 163 326 163 416 m 217 814 q 265 699 217 747 q 380 651 313 651 q 495 699 447 651 q 543 814 543 747 q 495 929 543 881 q 380 977 447 977 q 265 929 313 977 q 217 814 217 881 z "},"9":{"ha":760,"x_min":54,"x_max":705,"o":"m 54 760 q 150 990 54 895 q 380 1085 245 1085 q 610 990 515 1085 q 705 760 705 895 q 653 582 705 660 l 320 30 q 310 16 316 22 q 271 0 294 0 q 233 16 249 0 q 217 54 217 32 q 224 82 217 70 l 440 439 q 380 434 411 434 q 150 529 245 434 q 54 760 54 625 m 163 760 q 226 606 163 669 q 380 543 290 543 q 533 606 470 543 q 597 760 597 669 q 533 913 597 850 q 380 977 470 977 q 226 913 290 977 q 163 760 163 850 z "},"\u0000":{"ha":1389,"x_min":0,"x_max":0,"o":""},"\r":{"ha":380,"x_min":0,"x_max":0,"o":""}," ":{"ha":380,"x_min":0,"x_max":0,"o":""},"!":{"ha":271,"x_min":54,"x_max":217,"o":"m 54 81 q 78 139 54 115 q 136 163 102 163 q 193 139 170 163 q 217 81 217 115 q 193 24 217 47 q 136 0 170 0 q 78 24 102 0 q 54 81 54 47 m 81 271 l 81 1031 q 97 1069 81 1053 q 136 1085 113 1085 q 174 1069 158 1085 q 190 1031 190 1053 l 190 271 q 174 233 190 249 q 136 217 158 217 q 98 233 113 217 q 81 271 81 249 z "},"\"":{"ha":380,"x_min":54,"x_max":326,"o":"m 54 1025 l 54 1031 q 70 1069 54 1053 q 109 1085 86 1085 q 147 1069 131 1085 q 163 1031 163 1053 l 163 1025 l 149 827 q 137 799 149 810 q 109 787 125 787 q 80 799 92 787 q 68 827 68 810 l 54 1025 m 217 1025 l 217 1031 q 233 1069 217 1053 q 271 1085 249 1085 q 310 1069 294 1085 q 326 1031 326 1053 l 326 1025 l 312 827 q 300 799 312 810 q 271 787 288 787 q 242 799 254 787 q 231 827 231 810 l 217 1025 z "},"#":{"ha":868,"x_min":50,"x_max":813,"o":"m 50 370 q 50 380 50 374 q 73 418 54 402 q 114 434 92 434 l 222 434 l 260 651 l 152 651 q 117 667 130 651 q 107 705 104 683 q 130 744 111 728 q 172 760 149 760 l 280 760 l 328 1031 q 350 1069 332 1053 q 391 1085 369 1085 q 427 1069 414 1085 q 436 1031 440 1053 l 389 760 l 551 760 l 599 1031 q 622 1069 603 1053 q 663 1085 640 1085 q 698 1069 685 1085 q 707 1031 711 1053 l 660 760 l 768 760 q 804 744 791 760 q 813 715 813 732 q 812 705 813 711 q 790 667 809 683 q 749 651 771 651 l 640 651 l 602 434 l 711 434 q 746 418 733 434 q 755 380 760 402 q 733 341 751 357 q 692 326 714 326 l 583 326 l 535 54 q 512 16 531 32 q 471 0 494 0 q 436 16 449 0 q 427 54 422 32 l 475 326 l 312 326 l 264 54 q 241 16 260 32 q 200 0 222 0 q 164 16 178 0 q 155 54 151 32 l 203 326 l 95 326 q 60 342 73 326 q 50 370 50 353 m 331 434 l 494 434 l 532 651 l 369 651 l 331 434 z "},"$":{"ha":719,"x_min":54,"x_max":665,"o":"m 54 181 q 70 219 54 203 q 109 235 86 235 q 155 210 138 235 q 174 186 163 197 q 326 109 231 117 l 326 546 q 172 637 235 564 q 109 835 100 722 q 203 1019 118 947 q 326 1079 259 1066 l 326 1139 q 341 1178 326 1162 q 380 1194 357 1194 q 418 1178 402 1194 q 434 1139 434 1162 l 434 1078 q 586 988 524 1061 q 612 951 601 970 q 621 922 621 939 q 605 884 621 900 q 566 868 589 868 q 528 884 544 868 q 519 896 522 890 q 503 918 512 907 q 434 966 473 952 l 434 637 q 588 536 524 612 q 665 330 665 446 q 663 299 665 315 q 550 78 652 165 q 434 14 496 33 l 434 -54 q 418 -93 434 -77 q 380 -109 402 -109 q 341 -93 357 -109 q 326 -54 326 -77 l 326 1 q 312 1 319 1 q 91 115 178 12 q 65 149 77 131 q 54 181 54 163 m 217 826 q 256 707 212 759 q 326 659 285 672 l 326 966 q 274 937 298 957 q 217 826 222 892 m 434 130 q 479 161 458 142 q 555 308 548 218 q 505 467 563 398 q 434 522 474 503 l 434 130 z "},"%":{"ha":1194,"x_min":54,"x_max":1139,"o":"m 54 814 q 134 1006 54 926 q 326 1085 213 1085 q 517 1006 438 1085 q 597 814 597 926 q 517 622 597 701 q 326 543 438 543 q 134 622 213 543 q 54 814 54 701 m 163 54 q 176 91 163 75 l 932 1063 q 977 1085 951 1085 q 1015 1069 999 1085 q 1031 1031 1031 1053 q 1020 998 1031 1013 l 258 18 q 217 0 239 0 q 179 16 195 0 q 163 54 163 32 m 163 814 q 211 699 163 747 q 326 651 258 651 q 440 699 393 651 q 488 814 488 747 q 440 929 488 881 q 326 977 393 977 q 211 929 258 977 q 163 814 163 881 m 597 271 q 676 463 597 384 q 868 543 755 543 q 1060 463 981 543 q 1139 271 1139 384 q 1060 79 1139 159 q 868 0 981 0 q 676 79 755 0 q 597 271 597 159 m 705 271 q 753 156 705 204 q 868 109 801 109 q 983 156 935 109 q 1031 271 1031 204 q 983 386 1031 338 q 868 434 935 434 q 753 386 801 434 q 705 271 705 338 z "},"&":{"ha":977,"x_min":54,"x_max":922,"o":"m 54 312 q 182 536 54 435 l 254 593 l 180 668 q 109 841 109 740 q 180 1014 109 942 q 353 1085 252 1085 q 525 1014 454 1085 q 597 841 597 942 q 498 648 597 733 l 416 585 l 656 345 l 776 473 q 814 488 791 488 q 852 472 836 488 q 868 434 868 456 q 854 397 868 413 l 732 268 l 907 91 q 922 54 922 76 q 906 16 922 32 q 868 0 890 0 q 830 15 846 0 l 658 188 l 564 87 q 353 0 476 0 q 142 87 229 0 q 54 312 54 175 m 163 312 q 218 164 163 220 q 353 109 274 109 q 487 164 431 109 l 581 265 l 329 518 l 252 460 q 163 312 163 391 m 217 841 q 256 745 217 785 l 340 661 l 421 724 q 488 841 488 778 q 449 937 488 897 q 353 977 409 977 q 257 937 296 977 q 217 841 217 897 z "},"'":{"ha":217,"x_min":54,"x_max":163,"o":"m 54 1025 l 54 1031 q 70 1069 54 1053 q 109 1085 86 1085 q 147 1069 131 1085 q 163 1031 163 1053 l 163 1025 l 149 827 q 137 799 149 810 q 109 787 125 787 q 80 799 92 787 q 68 827 68 810 l 54 1025 z "},"(":{"ha":380,"x_min":54,"x_max":325,"o":"m 54 381 q 219 1049 54 715 q 232 1069 223 1060 q 271 1085 248 1085 q 309 1069 293 1085 q 325 1031 325 1053 q 316 1002 323 1015 q 161 380 161 691 q 317 -243 161 68 q 325 -271 325 -256 q 309 -310 325 -294 q 271 -326 293 -326 q 232 -309 248 -326 q 219 -289 224 -300 q 54 381 54 47 z "},")":{"ha":380,"x_min":54,"x_max":326,"o":"m 54 -271 q 62 -243 54 -256 q 218 380 218 68 q 63 1002 218 691 q 54 1031 56 1015 q 70 1069 54 1053 q 109 1085 86 1085 q 147 1069 131 1085 q 160 1049 156 1060 q 326 381 326 715 q 160 -289 326 47 q 147 -309 155 -300 q 109 -326 131 -326 q 70 -310 86 -326 q 54 -271 54 -294 z "},"*":{"ha":529,"x_min":58,"x_max":473,"o":"m 58 922 q 61 940 58 931 q 89 971 68 962 q 130 973 109 981 q 146 964 140 970 l 253 885 l 214 1013 q 211 1031 211 1021 q 227 1069 211 1053 q 265 1085 243 1085 q 303 1069 288 1085 q 319 1031 319 1053 q 317 1013 319 1021 l 277 884 l 385 964 q 401 973 392 970 q 442 971 422 981 q 470 940 463 962 q 473 922 473 930 q 468 899 473 910 q 437 871 458 878 q 419 867 428 868 l 286 862 l 395 786 q 409 773 403 781 q 420 733 422 755 q 399 697 417 711 q 359 686 385 686 q 323 707 337 689 q 315 723 317 714 l 266 846 l 216 723 q 208 707 214 714 q 164 686 194 686 q 132 697 146 686 q 111 733 114 711 q 122 773 109 755 q 136 786 128 781 l 245 862 l 113 867 q 94 871 103 868 q 64 899 73 878 q 58 922 58 910 z "},"+":{"ha":760,"x_min":54,"x_max":705,"o":"m 54 543 q 70 581 54 565 q 109 597 86 597 l 326 597 l 326 814 q 341 852 326 836 q 380 868 357 868 q 418 852 402 868 q 434 814 434 836 l 434 597 l 651 597 q 689 581 673 597 q 705 543 705 565 q 689 504 705 520 q 651 488 673 488 l 434 488 l 434 271 q 418 233 434 249 q 380 217 402 217 q 341 233 357 217 q 326 271 326 249 l 326 488 l 109 488 q 70 504 86 488 q 54 543 54 520 z "},",":{"ha":271,"x_min":54,"x_max":217,"o":"m 54 81 q 78 139 54 115 q 136 163 102 163 q 193 139 170 163 q 217 81 217 115 q 158 -141 217 -52 q 122 -163 146 -163 q 93 -151 105 -163 q 81 -122 81 -139 q 93 -94 81 -105 q 78 24 140 -41 q 54 81 54 47 z "},"-":{"ha":543,"x_min":54,"x_max":488,"o":"m 54 380 q 70 418 54 402 q 109 434 86 434 l 434 434 q 472 418 456 434 q 488 380 488 402 q 472 341 488 357 q 434 326 456 326 l 109 326 q 70 341 86 326 q 54 380 54 357 z "},".":{"ha":271,"x_min":54,"x_max":217,"o":"m 54 81 q 78 139 54 115 q 136 163 102 163 q 193 139 170 163 q 217 81 217 115 q 193 24 217 47 q 136 0 170 0 q 78 24 102 0 q 54 81 54 47 z "},"/":{"ha":651,"x_min":54,"x_max":597,"o":"m 54 -54 q 59 -31 54 -42 l 493 1054 q 505 1069 497 1062 q 543 1085 520 1085 q 581 1069 565 1085 q 597 1031 597 1053 q 592 1008 597 1019 l 158 -77 q 147 -92 154 -85 q 109 -109 131 -109 q 70 -93 86 -109 q 54 -54 54 -77 z "},":":{"ha":271,"x_min":54,"x_max":217,"o":"m 54 81 q 78 139 54 115 q 136 163 102 163 q 193 139 170 163 q 217 81 217 115 q 193 24 217 47 q 136 0 170 0 q 78 24 102 0 q 54 81 54 47 m 54 679 q 78 736 54 713 q 136 760 102 760 q 193 736 170 760 q 217 679 217 713 q 193 621 217 645 q 136 597 170 597 q 78 621 102 597 q 54 679 54 645 z "},";":{"ha":271,"x_min":54,"x_max":217,"o":"m 54 81 q 78 139 54 115 q 136 163 102 163 q 193 139 170 163 q 217 81 217 115 q 158 -141 217 -52 q 122 -163 143 -163 q 93 -151 105 -163 q 81 -122 81 -139 q 93 -94 81 -105 q 78 24 140 -41 q 54 81 54 47 m 54 679 q 78 736 54 713 q 136 760 102 760 q 193 736 170 760 q 217 679 217 713 q 193 621 217 645 q 136 597 170 597 q 78 621 102 597 q 54 679 54 645 z "},"<":{"ha":760,"x_min":54,"x_max":705,"o":"m 54 488 q 84 537 54 518 l 624 861 q 651 868 636 868 q 689 852 673 868 q 705 814 705 836 q 677 766 705 785 l 214 488 l 677 210 q 705 163 705 192 q 689 124 705 140 q 651 109 673 109 q 624 115 636 109 l 84 439 q 54 488 54 458 z "},"=":{"ha":705,"x_min":54,"x_max":651,"o":"m 54 326 q 70 364 54 348 q 109 380 86 380 l 597 380 q 635 364 619 380 q 651 326 651 348 q 635 287 651 303 q 597 271 619 271 l 109 271 q 70 287 86 271 q 54 326 54 303 m 54 651 q 70 689 54 673 q 109 705 86 705 l 597 705 q 635 689 619 705 q 651 651 651 673 q 635 613 651 629 q 597 597 619 597 l 109 597 q 70 613 86 597 q 54 651 54 629 z "},">":{"ha":760,"x_min":54,"x_max":705,"o":"m 54 163 q 82 210 54 192 l 546 488 l 82 766 q 54 814 54 785 q 70 852 54 836 q 109 868 86 868 q 136 861 123 868 l 675 537 q 705 488 705 518 q 675 439 705 458 l 136 115 q 109 109 123 109 q 70 124 86 109 q 54 163 54 140 z "},"?":{"ha":760,"x_min":54,"x_max":705,"o":"m 54 760 q 150 990 54 895 q 380 1085 245 1085 q 610 990 515 1085 q 705 760 705 895 q 610 529 705 625 l 498 425 q 434 271 434 361 q 418 233 434 249 q 380 217 402 217 q 341 233 357 217 q 326 271 326 249 q 421 502 326 406 l 533 606 q 597 760 597 669 q 533 913 597 850 q 380 977 470 977 q 226 913 290 977 q 163 760 163 850 q 147 721 163 737 q 109 705 131 705 q 70 721 86 705 q 54 760 54 737 m 298 81 q 322 139 298 115 q 380 163 346 163 q 437 139 414 163 q 461 81 461 115 q 437 24 461 47 q 380 0 414 0 q 322 24 346 0 q 298 81 298 47 z "},"@":{"ha":1519,"x_min":54,"x_max":1465,"o":"m 54 380 q 261 879 54 672 q 760 1085 467 1085 q 1258 879 1052 1085 q 1465 380 1465 672 q 1194 -54 1465 -54 q 1031 113 1031 -54 q 760 0 917 0 q 491 111 602 0 q 380 380 380 222 q 491 648 380 537 q 760 760 602 760 q 1028 648 917 760 q 1139 380 1139 537 l 1139 109 q 1194 54 1139 54 q 1356 380 1356 54 q 1182 802 1356 627 q 760 977 1007 977 q 337 802 512 977 q 163 380 163 627 q 337 -42 163 132 q 760 -217 512 -217 q 1005 -167 892 -217 q 1032 -159 1017 -159 q 1070 -175 1055 -159 q 1086 -214 1086 -191 q 1071 -252 1086 -236 q 1052 -264 1062 -260 q 760 -326 918 -326 q 261 -119 467 -326 q 54 380 54 87 m 488 380 q 568 188 488 267 q 760 109 647 109 q 951 188 872 109 q 1031 380 1031 267 q 951 572 1031 492 q 760 651 872 651 q 568 572 647 651 q 488 380 488 492 z "},"A":{"ha":977,"x_min":54,"x_max":922,"o":"m 54 54 q 59 77 54 67 l 436 1047 q 450 1069 440 1059 q 488 1085 466 1085 q 527 1069 511 1085 q 541 1047 536 1059 l 918 77 q 922 54 922 67 q 906 16 922 32 q 868 0 890 0 q 830 16 846 0 q 818 33 822 24 l 683 380 l 294 380 l 159 33 q 147 16 155 24 q 109 0 131 0 q 70 16 86 0 q 54 54 54 32 m 336 488 l 641 488 l 488 881 l 336 488 z "},"B":{"ha":760,"x_min":54,"x_max":705,"o":"m 54 54 l 54 1031 q 70 1069 54 1053 q 109 1085 86 1085 l 326 1085 q 517 1006 438 1085 q 597 814 597 926 q 517 622 597 701 q 610 556 568 598 q 705 326 705 460 q 610 95 705 191 q 380 0 515 0 l 109 0 q 70 16 86 0 q 54 54 54 32 m 163 109 l 380 109 q 533 172 470 109 q 597 326 597 235 q 533 479 597 416 q 380 543 470 543 l 163 543 l 163 109 m 163 651 l 326 651 q 440 699 393 651 q 488 814 488 747 q 440 929 488 881 q 326 977 393 977 l 163 977 l 163 651 z "},"C":{"ha":1004,"x_min":54,"x_max":958,"o":"m 54 543 q 213 926 54 767 q 597 1085 372 1085 q 942 961 791 1085 q 958 922 958 945 q 942 884 958 900 q 903 868 926 868 q 865 884 881 868 q 597 977 750 977 q 290 849 417 977 q 163 543 163 722 q 290 236 163 363 q 597 109 417 109 q 868 203 752 109 q 899 213 882 213 q 938 197 922 213 q 954 159 954 181 q 938 121 954 136 q 597 0 787 0 q 213 159 372 0 q 54 543 54 318 z "},"D":{"ha":922,"x_min":54,"x_max":868,"o":"m 54 54 l 54 1031 q 70 1069 54 1053 q 109 1085 86 1085 l 326 1085 q 709 926 550 1085 q 868 543 868 767 q 709 159 868 318 q 326 0 550 0 l 109 0 q 70 16 86 0 q 54 54 54 32 m 163 109 l 326 109 q 632 236 505 109 q 760 543 760 363 q 632 849 760 722 q 326 977 505 977 l 163 977 l 163 109 z "},"E":{"ha":868,"x_min":54,"x_max":814,"o":"m 54 54 l 54 1031 q 70 1069 54 1053 q 109 1085 86 1085 l 760 1085 q 798 1069 782 1085 q 814 1031 814 1053 q 798 992 814 1008 q 760 977 782 977 l 163 977 l 163 597 l 597 597 q 635 581 619 597 q 651 543 651 565 q 635 504 651 520 q 597 488 619 488 l 163 488 l 163 109 l 760 109 q 798 93 782 109 q 814 54 814 77 q 798 16 814 32 q 760 0 782 0 l 109 0 q 70 16 86 0 q 54 54 54 32 z "},"F":{"ha":868,"x_min":54,"x_max":814,"o":"m 54 54 l 54 1031 q 70 1069 54 1053 q 109 1085 86 1085 l 760 1085 q 798 1069 782 1085 q 814 1031 814 1053 q 798 992 814 1008 q 760 977 782 977 l 163 977 l 163 597 l 597 597 q 635 581 619 597 q 651 543 651 565 q 635 504 651 520 q 597 488 619 488 l 163 488 l 163 54 q 147 16 163 32 q 109 0 131 0 q 70 16 86 0 q 54 54 54 32 z "},"G":{"ha":1017,"x_min":54,"x_max":958,"o":"m 54 543 q 213 926 54 767 q 597 1085 372 1085 q 942 961 791 1085 q 958 922 958 945 q 942 884 958 900 q 903 868 926 868 q 865 884 881 868 q 597 977 750 977 q 290 849 417 977 q 163 543 163 722 q 290 236 163 363 q 597 109 417 109 q 845 186 737 109 l 845 434 l 631 434 q 592 450 608 434 q 576 488 576 466 q 592 527 576 511 q 631 543 608 543 l 900 543 q 938 527 922 543 q 954 488 954 511 l 954 159 q 938 121 954 136 q 597 0 787 0 q 213 159 372 0 q 54 543 54 318 z "},"H":{"ha":868,"x_min":54,"x_max":814,"o":"m 54 54 l 54 1031 q 70 1069 54 1053 q 109 1085 86 1085 q 147 1069 131 1085 q 163 1031 163 1053 l 163 597 l 705 597 l 705 1031 q 721 1069 705 1053 q 760 1085 737 1085 q 798 1069 782 1085 q 814 1031 814 1053 l 814 54 q 798 16 814 32 q 760 0 782 0 q 721 16 737 0 q 705 54 705 32 l 705 488 l 163 488 l 163 54 q 147 16 163 32 q 109 0 131 0 q 70 16 86 0 q 54 54 54 32 z "},"I":{"ha":326,"x_min":109,"x_max":217,"o":"m 109 54 l 109 1031 q 124 1069 109 1053 q 163 1085 140 1085 q 201 1069 185 1085 q 217 1031 217 1053 l 217 54 q 201 16 217 32 q 163 0 185 0 q 124 16 140 0 q 109 54 109 32 z "},"J":{"ha":760,"x_min":54,"x_max":705,"o":"m 54 326 q 70 364 54 348 q 109 380 86 380 q 147 364 131 380 q 163 326 163 348 q 226 172 163 235 q 380 109 290 109 q 533 172 470 109 q 597 326 597 235 l 597 1031 q 613 1069 597 1053 q 651 1085 629 1085 q 689 1069 673 1085 q 705 1031 705 1053 l 705 326 q 610 95 705 191 q 380 0 515 0 q 150 95 245 0 q 54 326 54 191 z "},"K":{"ha":814,"x_min":54,"x_max":760,"o":"m 54 54 l 54 1031 q 70 1069 54 1053 q 109 1085 86 1085 q 147 1069 131 1085 q 163 1031 163 1053 l 163 566 l 665 1068 q 705 1085 683 1085 q 744 1069 728 1085 q 760 1031 760 1053 q 744 992 760 1008 l 363 611 l 749 87 q 760 56 760 73 q 738 11 760 28 q 707 0 723 0 q 661 23 677 0 l 285 533 l 163 411 l 163 54 q 147 16 163 32 q 109 0 131 0 q 70 16 86 0 q 54 54 54 32 z "},"L":{"ha":814,"x_min":54,"x_max":760,"o":"m 54 54 l 54 1031 q 70 1069 54 1053 q 109 1085 86 1085 q 147 1069 131 1085 q 163 1031 163 1053 l 163 109 l 705 109 q 744 93 728 109 q 760 54 760 77 q 744 16 760 32 q 705 0 728 0 l 109 0 q 70 16 86 0 q 54 54 54 32 z "},"M":{"ha":1194,"x_min":54,"x_max":1139,"o":"m 54 54 l 54 1031 q 70 1069 54 1053 q 109 1085 86 1085 q 157 1057 141 1085 l 597 176 l 1037 1057 q 1085 1085 1053 1085 q 1123 1069 1107 1085 q 1139 1031 1139 1053 l 1139 54 q 1123 16 1139 32 q 1085 0 1107 0 q 1047 16 1063 0 q 1031 54 1031 32 l 1031 801 l 644 26 q 597 0 629 0 q 547 33 563 0 l 163 801 l 163 54 q 147 16 163 32 q 109 0 131 0 q 70 16 86 0 q 54 54 54 32 z "},"N":{"ha":977,"x_min":54,"x_max":922,"o":"m 54 54 l 54 1031 q 70 1069 54 1053 q 109 1085 86 1085 q 151 1065 133 1085 l 814 212 l 814 1031 q 830 1069 814 1053 q 868 1085 846 1085 q 906 1069 890 1085 q 922 1031 922 1053 l 922 54 q 906 16 922 32 q 868 0 890 0 q 827 18 844 0 l 163 872 l 163 54 q 147 16 163 32 q 109 0 131 0 q 70 16 86 0 q 54 54 54 32 z "},"O":{"ha":1194,"x_min":54,"x_max":1139,"o":"m 54 543 q 213 926 54 767 q 597 1085 372 1085 q 980 926 821 1085 q 1139 543 1139 767 q 980 159 1139 318 q 597 0 821 0 q 213 159 372 0 q 54 543 54 318 m 163 543 q 290 236 163 363 q 597 109 417 109 q 904 236 777 109 q 1031 543 1031 363 q 904 849 1031 722 q 597 977 777 977 q 290 849 417 977 q 163 543 163 722 z "},"P":{"ha":732,"x_min":54,"x_max":678,"o":"m 54 54 l 54 1031 q 70 1069 54 1053 q 109 1085 86 1085 l 326 1085 q 575 982 471 1085 q 678 732 678 878 q 575 483 678 587 q 326 380 471 380 l 163 380 l 163 54 q 147 16 163 32 q 109 0 131 0 q 70 16 86 0 q 54 54 54 32 m 163 488 l 326 488 q 498 560 427 488 q 570 732 570 631 q 498 905 570 833 q 326 977 427 977 l 163 977 l 163 488 z "},"Q":{"ha":1194,"x_min":54,"x_max":1139,"o":"m 54 543 q 213 926 54 767 q 597 1085 372 1085 q 980 926 821 1085 q 1139 543 1139 767 q 1017 199 1139 346 l 1124 92 q 1139 54 1139 76 q 1123 16 1139 32 q 1085 0 1107 0 q 1046 16 1063 0 l 940 122 q 597 0 793 0 q 213 159 372 0 q 54 543 54 318 m 163 543 q 290 236 163 363 q 597 109 417 109 q 863 199 749 109 l 748 314 q 732 353 732 330 q 748 391 732 375 q 787 407 764 407 q 825 391 809 407 l 940 277 q 1031 543 1031 391 q 904 849 1031 722 q 597 977 777 977 q 290 849 417 977 q 163 543 163 722 z "},"R":{"ha":814,"x_min":54,"x_max":760,"o":"m 54 54 l 54 1031 q 70 1069 54 1053 q 109 1085 86 1085 l 380 1085 q 610 990 515 1085 q 705 760 705 895 q 610 530 705 625 q 515 463 566 486 l 751 84 q 760 54 760 71 q 744 16 760 32 q 705 0 728 0 q 658 28 676 0 l 404 435 q 380 434 392 434 l 163 434 l 163 54 q 147 16 163 32 q 109 0 131 0 q 70 16 86 0 q 54 54 54 32 m 163 543 l 380 543 q 533 606 470 543 q 597 760 597 669 q 533 913 597 850 q 380 977 470 977 l 163 977 l 163 543 z "},"S":{"ha":719,"x_min":54,"x_max":665,"o":"m 54 181 q 70 219 54 203 q 109 235 86 235 q 155 210 138 235 q 174 186 163 197 q 321 109 231 117 q 340 109 331 109 q 479 160 418 109 q 555 308 548 218 q 556 328 556 318 q 505 467 556 407 q 357 542 446 534 q 172 637 245 551 q 108 811 108 713 q 109 835 108 823 q 203 1019 118 947 q 380 1085 280 1085 q 586 988 498 1085 q 612 951 601 970 q 621 922 621 939 q 605 884 621 900 q 566 868 589 868 q 528 884 541 868 q 503 918 516 901 q 393 975 459 969 q 378 975 385 975 q 274 936 319 975 q 217 826 222 892 q 217 811 216 819 q 255 707 217 753 q 366 650 298 656 q 588 536 500 639 q 665 330 665 446 q 663 299 665 315 q 550 78 652 165 q 342 0 458 0 q 91 115 196 0 q 65 149 77 131 q 54 181 54 163 z "},"T":{"ha":922,"x_min":54,"x_max":868,"o":"m 54 1031 q 70 1069 54 1053 q 109 1085 86 1085 l 814 1085 q 852 1069 836 1085 q 868 1031 868 1053 q 852 992 868 1008 q 814 977 836 977 l 515 977 l 515 54 q 499 16 515 32 q 461 0 484 0 q 423 16 439 0 q 407 54 407 32 l 407 977 l 109 977 q 70 992 86 977 q 54 1031 54 1008 z "},"U":{"ha":868,"x_min":54,"x_max":814,"o":"m 54 380 l 54 1031 q 70 1069 54 1053 q 109 1085 86 1085 q 147 1069 131 1085 q 163 1031 163 1053 l 163 380 q 242 188 163 267 q 434 109 321 109 q 626 188 547 109 q 705 380 705 267 l 705 1031 q 721 1069 705 1053 q 760 1085 737 1085 q 798 1069 782 1085 q 814 1031 814 1053 l 814 380 q 703 111 814 222 q 434 0 591 0 q 165 111 277 0 q 54 380 54 222 z "},"V":{"ha":977,"x_min":54,"x_max":922,"o":"m 54 1031 q 70 1069 54 1053 q 109 1085 86 1085 q 158 1054 144 1085 l 488 204 l 819 1054 q 868 1085 832 1085 q 906 1069 890 1085 q 922 1031 922 1053 q 916 1000 922 1016 l 538 34 q 527 16 534 23 q 488 0 511 0 q 450 16 466 0 q 439 34 443 23 l 61 1000 q 54 1031 54 1016 z "},"W":{"ha":1302,"x_min":54,"x_max":1248,"o":"m 54 1031 q 70 1069 54 1053 q 109 1085 86 1085 q 147 1069 131 1085 q 160 1049 156 1060 l 380 257 l 600 1049 q 613 1069 602 1059 q 651 1085 629 1085 q 690 1069 673 1085 q 703 1049 699 1060 l 922 257 l 1142 1049 q 1156 1069 1146 1060 q 1194 1085 1171 1085 q 1232 1069 1216 1085 q 1248 1031 1248 1053 q 1244 1007 1248 1019 l 978 45 q 961 16 972 28 q 922 0 945 0 q 884 16 900 0 q 867 45 872 28 l 651 826 l 435 45 q 418 16 430 28 q 380 0 402 0 q 342 16 357 0 q 325 45 330 28 l 58 1007 q 54 1031 54 1019 z "},"X":{"ha":977,"x_min":54,"x_max":922,"o":"m 54 54 q 66 88 54 73 l 419 543 l 64 1000 q 54 1031 54 1013 q 70 1069 54 1053 q 109 1085 86 1085 q 153 1062 134 1085 l 488 631 l 823 1062 q 868 1085 842 1085 q 906 1069 890 1085 q 922 1031 922 1053 q 913 1000 922 1013 l 557 543 l 911 88 q 922 54 922 73 q 906 16 922 32 q 868 0 890 0 q 827 19 842 0 l 488 454 l 150 19 q 109 0 134 0 q 70 16 86 0 q 54 54 54 32 z "},"Y":{"ha":868,"x_min":54,"x_max":814,"o":"m 54 1031 q 70 1069 54 1053 q 109 1085 86 1085 q 153 1063 136 1085 l 434 641 l 715 1063 q 760 1085 732 1085 q 798 1069 782 1085 q 814 1031 814 1053 q 805 1000 814 1014 l 488 526 l 488 54 q 472 16 488 32 q 434 0 456 0 q 396 16 412 0 q 380 54 380 32 l 380 526 l 63 1000 q 54 1031 54 1014 z "},"Z":{"ha":977,"x_min":54,"x_max":922,"o":"m 54 54 q 66 88 54 73 l 757 977 l 109 977 q 70 992 86 977 q 54 1031 54 1008 q 70 1069 54 1053 q 109 1085 86 1085 l 868 1085 q 906 1069 890 1085 q 922 1031 922 1053 q 913 1000 922 1013 l 220 109 l 868 109 q 906 93 890 109 q 922 54 922 77 q 906 16 922 32 q 868 0 890 0 l 109 0 q 70 16 86 0 q 54 54 54 32 z "},"[":{"ha":434,"x_min":54,"x_max":380,"o":"m 54 -271 l 54 1031 q 70 1069 54 1053 q 109 1085 86 1085 l 326 1085 q 364 1069 348 1085 q 380 1031 380 1053 q 364 992 380 1008 q 326 977 348 977 l 163 977 l 163 -217 l 326 -217 q 364 -233 348 -217 q 380 -271 380 -249 q 364 -310 380 -294 q 326 -326 348 -326 l 109 -326 q 70 -310 86 -326 q 54 -271 54 -294 z "},"\\":{"ha":651,"x_min":54,"x_max":597,"o":"m 54 1031 q 70 1069 54 1053 q 109 1085 86 1085 q 147 1069 131 1085 q 158 1054 154 1062 l 592 -31 q 597 -54 597 -42 q 581 -93 597 -77 q 543 -109 565 -109 q 504 -92 520 -109 q 493 -77 497 -85 l 59 1008 q 54 1031 54 1019 z "},"]":{"ha":434,"x_min":54,"x_max":380,"o":"m 54 -271 q 70 -233 54 -249 q 109 -217 86 -217 l 271 -217 l 271 977 l 109 977 q 70 992 86 977 q 54 1031 54 1008 q 70 1069 54 1053 q 109 1085 86 1085 l 326 1085 q 364 1069 348 1085 q 380 1031 380 1053 l 380 -271 q 364 -310 380 -294 q 326 -326 348 -326 l 109 -326 q 70 -310 86 -326 q 54 -271 54 -294 z "},"^":{"ha":651,"x_min":54,"x_max":597,"o":"m 54 705 q 62 733 54 721 l 281 1063 q 326 1085 296 1085 q 370 1063 355 1085 l 589 733 q 597 705 597 721 q 581 667 597 683 q 543 651 565 651 q 499 672 515 651 l 326 932 l 152 672 q 109 651 136 651 q 70 667 86 651 q 54 705 54 683 z "},"_":{"ha":651,"x_min":-54,"x_max":705,"o":"m -54 -54 q -38 -16 -54 -32 q 0 0 -22 0 l 651 0 q 689 -16 673 0 q 705 -54 705 -32 q 689 -93 705 -77 q 651 -109 673 -109 l 0 -109 q -38 -93 -22 -109 q -54 -54 -54 -77 z "},"`":{"ha":380,"x_min":54,"x_max":326,"o":"m 54 1031 q 70 1069 54 1053 q 109 1085 86 1085 q 147 1069 131 1085 l 312 905 q 326 868 326 889 q 310 830 326 846 q 271 814 294 814 q 234 828 250 814 l 69 993 q 54 1031 54 1009 z "},"a":{"ha":868,"x_min":54,"x_max":814,"o":"m 54 380 q 165 648 54 537 q 434 760 277 760 q 703 648 591 760 q 814 380 814 537 l 814 54 q 798 16 814 32 q 760 0 782 0 q 721 16 737 0 q 705 54 705 32 l 705 114 q 434 0 591 0 q 165 111 277 0 q 54 380 54 222 m 163 380 q 242 188 163 267 q 434 109 321 109 q 626 188 547 109 q 705 380 705 267 q 626 572 705 492 q 434 651 547 651 q 242 572 321 651 q 163 380 163 492 z "},"b":{"ha":868,"x_min":54,"x_max":814,"o":"m 54 380 l 54 1032 q 70 1070 54 1055 q 109 1086 86 1086 q 147 1070 131 1086 q 163 1032 163 1055 l 163 646 q 165 648 164 647 q 434 760 277 760 q 703 648 591 760 q 814 380 814 537 q 703 111 814 222 q 434 0 591 0 q 165 111 277 0 q 54 380 54 222 m 163 380 q 242 188 163 267 q 434 109 321 109 q 626 188 547 109 q 705 380 705 267 q 626 572 705 492 q 434 651 547 651 q 242 572 321 651 q 163 380 163 492 z "},"c":{"ha":760,"x_min":54,"x_max":701,"o":"m 54 380 q 165 648 54 537 q 434 760 277 760 q 682 668 576 760 q 701 626 701 651 q 685 588 701 604 q 646 572 669 572 q 612 584 627 572 q 434 651 536 651 q 242 572 321 651 q 163 380 163 492 q 242 188 163 267 q 434 109 321 109 q 611 175 536 109 q 644 186 625 186 q 683 170 667 186 q 699 132 699 154 q 682 92 699 109 q 434 0 576 0 q 165 111 277 0 q 54 380 54 222 z "},"d":{"ha":868,"x_min":54,"x_max":814,"o":"m 54 380 q 165 648 54 537 q 434 760 277 760 q 703 648 591 760 q 705 646 704 647 l 705 1032 q 721 1070 705 1055 q 760 1086 737 1086 q 798 1070 782 1086 q 814 1032 814 1055 l 814 380 q 703 111 814 222 q 434 0 591 0 q 165 111 277 0 q 54 380 54 222 m 163 380 q 242 188 163 267 q 434 109 321 109 q 626 188 547 109 q 705 380 705 267 q 626 572 705 492 q 434 651 547 651 q 242 572 321 651 q 163 380 163 492 z "},"e":{"ha":868,"x_min":54,"x_max":814,"o":"m 54 380 q 165 648 54 537 q 434 760 277 760 q 703 648 591 760 q 814 380 814 537 q 798 341 814 357 q 760 326 782 326 l 168 326 q 242 188 182 248 q 434 109 321 109 q 609 173 536 109 q 643 184 624 184 q 681 169 665 184 q 697 130 697 153 q 682 92 697 108 q 434 0 576 0 q 165 111 277 0 q 54 380 54 222 m 168 434 l 701 434 q 626 572 686 512 q 434 651 547 651 q 242 572 321 651 q 168 434 182 512 z "},"f":{"ha":543,"x_min":54,"x_max":543,"o":"m 54 665 q 70 703 54 687 q 109 719 86 719 l 163 719 l 163 760 q 488 1085 163 1085 q 527 1069 511 1085 q 543 1031 543 1053 q 527 992 543 1008 q 488 977 511 977 q 271 760 271 977 l 271 719 l 435 719 q 473 703 457 719 q 489 665 489 687 q 473 626 489 642 q 435 610 457 610 l 271 610 l 271 54 q 255 16 271 32 q 217 0 239 0 q 179 16 195 0 q 163 54 163 32 l 163 610 l 109 610 q 70 626 86 610 q 54 665 54 642 z "},"g":{"ha":868,"x_min":54,"x_max":814,"o":"m 54 380 q 165 648 54 537 q 434 760 277 760 q 703 648 591 760 q 814 380 814 537 l 814 0 q 728 -206 814 -119 q 440 -326 609 -326 q 153 -206 271 -326 q 81 -112 109 -163 q 73 -83 73 -100 q 89 -45 73 -61 q 127 -29 104 -29 q 165 -45 149 -29 q 177 -61 172 -52 q 229 -130 197 -98 q 440 -217 317 -217 q 651 -130 564 -217 q 705 0 705 -64 l 705 114 q 703 111 704 113 q 434 0 591 0 q 165 111 277 0 q 54 380 54 222 m 163 380 q 242 188 163 267 q 434 109 321 109 q 626 188 547 109 q 705 380 705 267 q 626 572 705 492 q 434 651 547 651 q 242 572 321 651 q 163 380 163 492 z "},"h":{"ha":814,"x_min":54,"x_max":760,"o":"m 54 54 l 54 1031 q 70 1069 54 1053 q 109 1085 86 1085 q 147 1069 131 1085 q 163 1031 163 1053 l 163 661 q 407 760 264 760 q 656 656 553 760 q 760 407 760 553 l 760 54 q 744 16 760 32 q 705 0 728 0 q 667 16 683 0 q 651 54 651 32 l 651 407 q 579 579 651 508 q 407 651 508 651 q 234 579 306 651 q 163 407 163 508 l 163 54 q 147 16 163 32 q 109 0 131 0 q 70 16 86 0 q 54 54 54 32 z "},"i":{"ha":326,"x_min":95,"x_max":231,"o":"m 95 922 q 115 970 95 950 q 163 990 135 990 q 211 970 191 990 q 231 922 231 950 q 211 874 231 895 q 163 854 191 854 q 115 874 135 854 q 95 922 95 895 m 109 54 l 109 705 q 124 744 109 728 q 163 760 140 760 q 201 744 185 760 q 217 705 217 728 l 217 54 q 201 16 217 32 q 163 0 185 0 q 124 16 140 0 q 109 54 109 32 z "},"j":{"ha":445,"x_min":0,"x_max":393,"o":"m 0 -271 q 16 -233 0 -249 q 54 -217 32 -217 q 208 -154 144 -217 q 271 0 271 -90 l 271 705 q 287 744 271 728 q 326 760 303 760 q 364 744 348 760 q 380 705 380 728 l 380 0 q 284 -230 380 -135 q 54 -326 189 -326 q 16 -310 32 -326 q 0 -271 0 -294 m 258 922 q 278 970 258 950 q 326 990 298 990 q 373 970 353 990 q 393 922 393 950 q 373 874 393 895 q 326 854 353 854 q 278 874 298 854 q 258 922 258 895 z "},"k":{"ha":760,"x_min":54,"x_max":705,"o":"m 54 54 l 54 1031 q 70 1069 54 1053 q 109 1085 86 1085 q 147 1069 131 1085 q 163 1031 163 1053 l 163 453 l 622 751 q 651 760 635 760 q 689 744 673 760 q 705 705 705 728 q 690 667 705 683 q 682 661 686 663 l 368 456 l 690 92 q 705 54 705 76 q 689 16 705 32 q 651 0 673 0 q 612 16 629 0 l 275 396 l 163 323 l 163 54 q 147 16 163 32 q 109 0 131 0 q 70 16 86 0 q 54 54 54 32 z "},"l":{"ha":326,"x_min":54,"x_max":271,"o":"m 54 54 l 54 1031 q 70 1069 54 1053 q 109 1085 86 1085 q 147 1069 131 1085 q 163 1031 163 1053 l 163 109 l 217 109 q 255 93 239 109 q 271 54 271 77 q 255 16 271 32 q 217 0 239 0 l 109 0 q 70 16 86 0 q 54 54 54 32 z "},"m":{"ha":1194,"x_min":54,"x_max":1139,"o":"m 54 54 l 54 705 q 70 744 54 728 q 109 760 86 760 q 147 744 131 760 q 163 705 163 728 l 163 691 q 353 760 243 760 q 564 672 476 760 q 597 633 582 654 q 630 672 612 654 q 841 760 718 760 q 1052 672 964 760 q 1139 461 1139 585 l 1139 54 q 1123 16 1139 32 q 1085 0 1107 0 q 1047 16 1063 0 q 1031 54 1031 32 l 1031 461 q 975 595 1031 540 q 841 651 920 651 q 707 595 762 651 q 651 461 651 540 l 651 54 q 635 16 651 32 q 597 0 619 0 q 558 16 574 0 q 543 54 543 32 l 543 461 q 487 595 543 540 q 353 651 431 651 q 218 595 274 651 q 163 461 163 540 l 163 54 q 147 16 163 32 q 109 0 131 0 q 70 16 86 0 q 54 54 54 32 z "},"n":{"ha":814,"x_min":54,"x_max":760,"o":"m 54 54 l 54 705 q 70 744 54 728 q 109 760 86 760 q 147 744 131 760 q 163 705 163 728 l 163 661 q 407 760 264 760 q 656 656 553 760 q 760 407 760 553 l 760 54 q 744 16 760 32 q 705 0 728 0 q 667 16 683 0 q 651 54 651 32 l 651 407 q 579 579 651 508 q 407 651 508 651 q 234 579 306 651 q 163 407 163 508 l 163 54 q 147 16 163 32 q 109 0 131 0 q 70 16 86 0 q 54 54 54 32 z "},"o":{"ha":868,"x_min":54,"x_max":814,"o":"m 54 380 q 165 648 54 537 q 434 760 277 760 q 703 648 591 760 q 814 380 814 537 q 703 111 814 222 q 434 0 591 0 q 165 111 277 0 q 54 380 54 222 m 163 380 q 242 188 163 267 q 434 109 321 109 q 626 188 547 109 q 705 380 705 267 q 626 572 705 492 q 434 651 547 651 q 242 572 321 651 q 163 380 163 492 z "},"p":{"ha":868,"x_min":54,"x_max":814,"o":"m 54 -271 l 54 380 q 165 648 54 537 q 434 760 277 760 q 703 648 591 760 q 814 380 814 537 q 703 111 814 222 q 434 0 591 0 q 165 111 277 0 q 163 114 164 113 l 163 -271 q 147 -310 163 -294 q 109 -326 131 -326 q 70 -310 86 -326 q 54 -271 54 -294 m 163 380 q 242 188 163 267 q 434 109 321 109 q 626 188 547 109 q 705 380 705 267 q 626 572 705 492 q 434 651 547 651 q 242 572 321 651 q 163 380 163 492 z "},"q":{"ha":868,"x_min":54,"x_max":814,"o":"m 54 380 q 165 648 54 537 q 434 760 277 760 q 703 648 591 760 q 814 380 814 537 l 814 -271 q 798 -310 814 -294 q 760 -326 782 -326 q 721 -310 737 -326 q 705 -271 705 -294 l 705 114 q 703 111 704 113 q 434 0 591 0 q 165 111 277 0 q 54 380 54 222 m 163 380 q 242 188 163 267 q 434 109 321 109 q 626 188 547 109 q 705 380 705 267 q 626 572 705 492 q 434 651 547 651 q 242 572 321 651 q 163 380 163 492 z "},"r":{"ha":651,"x_min":54,"x_max":618,"o":"m 54 54 l 54 705 q 70 744 54 728 q 109 760 86 760 q 147 744 131 760 q 163 705 163 728 l 163 646 q 434 760 277 760 q 580 732 513 760 q 602 718 592 728 q 618 680 618 702 q 602 641 618 657 q 564 625 586 625 q 540 631 551 625 q 434 651 492 651 q 242 572 321 651 q 163 380 163 492 l 163 54 q 147 16 163 32 q 109 0 131 0 q 70 16 86 0 q 54 54 54 32 z "},"s":{"ha":719,"x_min":54,"x_max":665,"o":"m 54 543 q 104 660 54 610 q 359 760 202 760 q 651 623 530 760 q 661 591 662 610 q 645 553 661 569 q 607 537 629 537 q 571 551 585 537 q 551 572 557 566 q 359 651 472 651 q 180 581 247 651 q 163 534 163 561 q 197 490 165 502 l 530 380 q 616 332 592 357 q 665 217 665 284 q 614 100 665 150 q 359 0 517 0 q 68 136 189 0 q 58 168 58 151 q 74 207 58 191 q 112 222 90 222 q 148 208 134 222 q 168 188 161 194 q 359 109 247 109 q 539 179 472 109 q 555 226 555 199 q 522 269 553 258 l 189 380 q 102 428 127 403 q 54 543 54 475 z "},"t":{"ha":543,"x_min":54,"x_max":488,"o":"m 54 705 q 70 744 54 728 q 109 760 86 760 l 163 760 l 163 1031 q 179 1069 163 1053 q 217 1085 195 1085 q 255 1069 239 1085 q 271 1031 271 1053 l 271 760 l 380 760 q 419 744 403 760 q 435 705 435 728 q 419 667 435 683 q 380 651 403 651 l 271 651 l 271 271 q 434 109 271 109 q 472 93 456 109 q 488 54 488 77 q 472 16 488 32 q 434 0 456 0 q 163 271 163 0 l 163 651 l 109 651 q 70 667 86 651 q 54 705 54 683 z "},"u":{"ha":814,"x_min":54,"x_max":760,"o":"m 54 353 l 54 705 q 70 744 54 728 q 109 760 86 760 q 147 744 131 760 q 163 705 163 728 l 163 353 q 234 180 163 252 q 407 109 306 109 q 579 180 508 109 q 651 353 651 252 l 651 705 q 667 744 651 728 q 705 760 683 760 q 744 744 728 760 q 760 705 760 728 l 760 54 q 744 16 760 32 q 705 0 728 0 q 667 16 683 0 q 651 54 651 32 l 651 98 q 407 0 549 0 q 158 103 261 0 q 54 353 54 207 z "},"v":{"ha":814,"x_min":54,"x_max":760,"o":"m 54 705 q 70 744 54 728 q 109 760 86 760 q 147 744 131 760 q 157 730 153 739 l 407 184 l 656 730 q 667 744 661 739 q 705 760 683 760 q 744 744 728 760 q 760 705 760 728 q 755 684 760 694 l 454 28 q 446 15 450 20 q 407 0 431 0 q 368 16 383 0 q 359 28 363 20 l 58 684 q 54 705 54 694 z "},"w":{"ha":1085,"x_min":54,"x_max":1031,"o":"m 54 705 q 70 744 54 728 q 109 760 86 760 q 147 744 131 760 q 158 728 154 736 l 326 226 l 490 719 q 505 744 494 733 q 543 760 520 760 q 581 744 565 760 q 595 719 591 733 l 760 226 l 927 728 q 939 744 931 736 q 977 760 954 760 q 1015 744 999 760 q 1031 705 1031 728 q 1027 684 1031 694 l 810 35 q 798 15 806 24 q 760 0 782 0 q 722 15 737 0 q 709 35 713 24 l 543 534 l 376 35 q 364 15 372 24 q 326 0 348 0 q 288 15 303 0 q 275 35 279 24 l 58 684 q 54 705 54 694 z "},"x":{"ha":760,"x_min":54,"x_max":705,"o":"m 54 54 q 65 87 54 73 l 309 380 l 67 670 q 54 705 54 685 q 70 744 54 728 q 109 760 86 760 q 149 743 131 760 l 380 465 l 611 743 q 651 760 629 760 q 689 744 673 760 q 705 705 705 728 q 692 670 705 685 l 450 380 l 694 87 q 705 54 705 73 q 689 16 705 32 q 651 0 673 0 q 613 16 629 0 l 380 296 l 146 16 q 109 0 131 0 q 70 16 86 0 q 54 54 54 32 z "},"y":{"ha":760,"x_min":54,"x_max":705,"o":"m 54 705 q 70 744 54 728 q 109 760 86 760 q 147 744 131 760 q 160 724 156 734 l 380 197 l 600 724 q 613 744 604 734 q 651 760 629 760 q 689 744 673 760 q 705 705 705 728 q 699 680 705 692 l 295 -290 q 282 -309 291 -300 q 243 -326 266 -326 q 205 -310 221 -326 q 189 -271 189 -294 q 195 -246 189 -258 l 321 55 l 60 680 q 54 705 54 692 z "},"z":{"ha":760,"x_min":54,"x_max":705,"o":"m 54 54 q 65 87 54 73 l 535 651 l 109 651 q 70 667 86 651 q 54 705 54 683 q 70 744 54 728 q 109 760 86 760 l 651 760 q 689 744 673 760 q 705 705 705 728 q 692 670 705 685 l 224 109 l 651 109 q 689 93 673 109 q 705 54 705 77 q 689 16 705 32 q 651 0 673 0 l 109 0 q 70 16 86 0 q 54 54 54 32 z "},"{":{"ha":543,"x_min":54,"x_max":488,"o":"m 54 380 q 70 418 54 402 q 109 434 86 434 q 217 543 217 434 l 217 868 q 434 1085 217 1085 q 472 1069 456 1085 q 488 1031 488 1053 q 472 992 488 1008 q 434 977 456 977 q 326 868 326 977 l 326 543 q 271 380 326 434 q 326 217 326 326 l 326 -109 q 434 -217 326 -217 q 472 -233 456 -217 q 488 -271 488 -249 q 472 -310 488 -294 q 434 -326 456 -326 q 217 -109 217 -326 l 217 217 q 109 326 217 326 q 70 341 86 326 q 54 380 54 357 z "},"|":{"ha":543,"x_min":217,"x_max":326,"o":"m 217 -271 l 217 1031 q 233 1069 217 1053 q 271 1085 249 1085 q 310 1069 294 1085 q 326 1031 326 1053 l 326 -271 q 310 -310 326 -294 q 271 -326 294 -326 q 233 -310 249 -326 q 217 -271 217 -294 z "},"}":{"ha":543,"x_min":54,"x_max":488,"o":"m 54 -271 q 70 -233 54 -249 q 109 -217 86 -217 q 217 -109 217 -217 l 217 217 q 271 380 217 326 q 217 543 217 434 l 217 868 q 109 977 217 977 q 70 992 86 977 q 54 1031 54 1008 q 70 1069 54 1053 q 109 1085 86 1085 q 326 868 326 1085 l 326 543 q 434 434 326 434 q 472 418 456 434 q 488 380 488 402 q 472 341 488 357 q 434 326 456 326 q 326 217 326 326 l 326 -109 q 109 -326 326 -326 q 70 -310 86 -326 q 54 -271 54 -294 z "},"~":{"ha":651,"x_min":48,"x_max":597,"o":"m 48 513 q 64 552 48 536 q 102 568 80 568 q 140 553 124 568 q 217 520 172 520 q 285 544 255 520 q 429 598 345 598 q 583 534 519 598 q 597 496 597 518 q 582 458 597 474 q 543 442 566 442 q 505 457 522 442 q 429 490 473 490 q 361 466 390 490 q 217 412 300 412 q 63 475 127 412 q 48 513 48 492 z "}," ":{"ha":380,"x_min":0,"x_max":0,"o":""},"¡":{"ha":271,"x_min":54,"x_max":217,"o":"m 54 677 q 78 735 54 711 q 136 759 102 759 q 193 735 170 759 q 217 677 217 711 q 193 620 217 644 q 136 596 170 596 q 78 620 102 596 q 54 677 54 644 m 81 -271 l 81 488 q 98 526 81 510 q 136 542 113 542 q 174 526 158 542 q 190 488 190 510 l 190 -271 q 174 -310 190 -294 q 136 -326 158 -326 q 97 -310 113 -326 q 81 -271 81 -294 z "},"¢":{"ha":760,"x_min":59,"x_max":705,"o":"m 59 380 q 170 648 59 537 q 439 760 281 760 q 472 758 456 760 l 546 943 q 576 972 555 964 q 597 977 585 977 q 616 973 607 977 q 646 944 637 965 q 647 903 655 924 l 580 734 q 686 668 637 711 q 705 626 705 651 q 689 588 705 604 q 651 572 673 572 q 616 584 631 572 q 539 632 581 616 l 337 127 q 439 109 384 109 q 616 175 541 109 q 649 186 630 186 q 687 170 671 186 q 703 132 703 154 q 686 92 703 109 q 439 0 581 0 q 297 26 362 0 l 214 -182 q 185 -212 205 -203 q 163 -217 174 -217 q 143 -213 153 -217 q 113 -184 122 -205 q 113 -142 104 -163 l 202 82 q 170 111 186 96 q 59 380 59 222 m 168 380 q 245 190 168 269 l 429 651 q 247 572 323 648 q 168 380 168 492 z "},"£":{"ha":705,"x_min":54,"x_max":651,"o":"m 54 488 q 70 527 54 511 q 109 543 86 543 l 180 543 q 129 712 165 629 l 130 712 q 109 814 109 763 q 188 1006 109 926 q 380 1085 267 1085 q 572 1006 492 1085 q 606 964 591 986 q 617 930 617 949 q 601 892 617 908 q 563 876 585 876 q 525 892 538 876 q 495 929 513 909 q 380 977 447 977 q 265 929 313 977 q 217 814 217 881 q 230 753 217 783 q 290 543 274 650 l 488 543 q 527 527 511 543 q 543 488 543 511 q 527 450 543 466 q 488 434 511 434 l 298 434 q 241 109 299 277 l 509 109 l 549 190 q 597 217 564 217 q 635 201 619 217 q 651 163 651 185 q 645 137 651 149 l 593 33 q 581 16 589 24 q 543 0 565 0 l 163 0 q 124 16 140 0 q 109 54 109 32 q 113 76 109 66 q 189 434 192 261 l 109 434 q 70 450 86 434 q 54 488 54 466 z "},"¤":{"ha":651,"x_min":75,"x_max":576,"o":"m 75 312 q 91 351 75 334 l 140 396 q 109 509 109 446 q 137 618 109 569 l 91 667 q 75 705 75 683 q 91 744 75 728 q 129 760 106 760 q 166 745 151 760 l 213 695 q 326 726 263 726 q 435 697 386 726 l 484 744 q 522 760 500 760 q 561 744 545 760 q 576 705 576 728 q 560 666 576 683 l 512 621 q 543 509 543 571 q 514 399 543 448 l 561 351 q 576 312 576 334 q 561 274 576 290 q 522 258 545 258 q 486 273 500 258 l 485 272 l 438 322 q 326 292 388 292 q 217 320 265 292 l 165 271 q 129 258 150 258 q 91 274 106 258 q 75 312 75 290 m 217 509 q 249 432 217 464 q 326 400 281 400 q 402 432 370 400 q 434 509 434 464 q 402 585 434 553 q 326 617 370 617 q 249 585 281 617 q 217 509 217 553 z "},"¥":{"ha":868,"x_min":54,"x_max":814,"o":"m 54 380 q 70 418 54 402 q 109 434 86 434 l 380 434 l 380 526 l 333 597 l 109 597 q 70 613 86 597 q 54 651 54 629 q 70 689 54 673 q 109 705 86 705 l 260 705 l 63 1000 q 54 1031 54 1014 q 70 1069 54 1053 q 109 1085 86 1085 q 153 1063 136 1085 l 434 641 l 715 1063 q 760 1085 732 1085 q 798 1069 782 1085 q 814 1031 814 1053 q 805 1000 814 1014 l 608 705 l 760 705 q 798 690 782 705 q 814 651 814 673 q 798 613 814 629 q 760 597 782 597 l 535 597 l 488 526 l 488 434 l 760 434 q 798 418 782 434 q 814 380 814 402 q 798 341 814 357 q 760 326 782 326 l 488 326 l 488 54 q 472 16 488 32 q 434 0 456 0 q 396 16 412 0 q 380 54 380 32 l 380 326 l 109 326 q 70 341 86 326 q 54 380 54 357 z "},"¦":{"ha":326,"x_min":109,"x_max":217,"o":"m 109 217 q 124 255 109 239 q 163 271 140 271 q 201 255 185 271 q 217 217 217 239 l 217 -271 q 201 -310 217 -294 q 163 -326 185 -326 q 124 -310 140 -326 q 109 -271 109 -294 l 109 217 m 109 651 l 109 1139 q 124 1178 109 1162 q 163 1194 140 1194 q 201 1178 185 1194 q 217 1139 217 1162 l 217 651 q 201 613 217 629 q 163 597 185 597 q 124 613 140 597 q 109 651 109 629 z "},"§":{"ha":651,"x_min":54,"x_max":597,"o":"m 54 -54 q 70 -16 54 -32 q 109 0 86 0 q 147 -16 131 0 q 163 -54 163 -32 q 211 -169 163 -121 q 326 -217 258 -217 q 440 -169 393 -217 q 488 -54 488 -121 q 440 61 488 13 q 326 109 393 109 q 134 188 213 109 q 54 380 54 267 q 134 572 54 492 q 162 597 147 585 q 134 622 147 608 q 54 814 54 701 q 134 1006 54 926 q 326 1085 213 1085 q 517 1006 438 1085 q 597 814 597 926 q 581 775 597 791 q 543 760 565 760 q 504 775 520 760 q 488 814 488 791 q 440 929 488 881 q 326 977 393 977 q 211 929 258 977 q 163 814 163 881 q 211 699 163 747 q 326 651 258 651 q 517 572 438 651 q 597 380 597 492 q 517 188 597 267 q 489 163 504 174 q 517 138 504 151 q 597 -54 597 58 q 517 -246 597 -167 q 326 -326 438 -326 q 134 -246 213 -326 q 54 -54 54 -167 m 163 380 q 211 265 163 313 q 326 217 258 217 q 440 265 393 217 q 488 380 488 313 q 440 495 488 447 q 326 543 393 543 q 211 495 258 543 q 163 380 163 447 z "},"¨":{"ha":651,"x_min":94,"x_max":555,"o":"m 94 922 q 114 970 94 950 q 162 990 134 990 q 210 970 190 990 q 230 922 230 950 q 210 874 230 895 q 162 854 190 854 q 114 874 134 854 q 94 922 94 895 m 420 922 q 440 970 420 950 q 488 990 460 990 q 535 970 515 990 q 555 922 555 950 q 535 874 555 895 q 488 854 515 854 q 440 874 460 854 q 420 922 420 895 z "},"©":{"ha":1194,"x_min":54,"x_max":1136,"o":"m 54 541 q 213 923 54 765 q 595 1082 371 1082 q 978 923 819 1082 q 1136 541 1136 765 q 978 158 1136 317 q 595 0 819 0 q 213 158 371 0 q 54 541 54 317 m 138 541 q 272 217 138 351 q 595 83 406 83 q 919 217 785 83 q 1053 541 1053 351 q 919 864 1053 730 q 595 998 785 998 q 272 864 406 998 q 138 541 138 730 m 217 543 q 328 811 217 700 q 597 922 439 922 q 844 831 739 922 q 863 789 863 814 q 847 750 863 766 q 809 734 831 734 q 774 747 789 734 q 597 814 699 814 q 405 734 484 814 q 326 543 326 655 q 405 351 326 430 q 597 271 484 271 q 774 338 699 271 q 807 349 788 349 q 845 333 829 349 q 861 294 861 317 q 844 254 861 272 q 597 163 739 163 q 328 274 439 163 q 217 543 217 385 z "},"ª":{"ha":651,"x_min":54,"x_max":597,"o":"m 54 814 q 134 1006 54 926 q 326 1085 213 1085 q 517 1006 438 1085 q 597 814 597 926 l 597 597 q 581 558 597 574 q 543 543 565 543 q 505 559 520 543 q 488 596 488 574 q 326 543 418 543 q 134 622 213 543 q 54 814 54 701 m 163 814 q 211 699 163 747 q 326 651 258 651 q 440 699 393 651 q 488 814 488 747 q 440 929 488 881 q 326 977 393 977 q 211 929 258 977 q 163 814 163 881 z "},"«":{"ha":651,"x_min":54,"x_max":597,"o":"m 54 379 q 61 406 54 393 l 221 726 q 233 743 225 735 q 271 759 249 759 q 310 743 294 759 q 326 705 326 727 q 321 682 326 692 l 170 380 l 321 77 q 326 54 326 66 q 310 16 326 32 q 271 0 294 0 q 233 16 249 0 q 221 33 225 24 l 62 350 q 54 379 54 365 m 326 379 q 332 406 326 393 l 492 726 q 505 743 496 735 q 543 759 520 759 q 581 743 565 759 q 597 705 597 727 q 592 682 597 692 l 441 380 l 592 77 q 597 54 597 66 q 581 16 597 32 q 543 0 565 0 q 505 16 520 0 q 492 33 496 24 l 334 350 q 326 379 326 365 z "},"¬":{"ha":760,"x_min":54,"x_max":705,"o":"m 54 705 q 70 744 54 728 q 109 760 86 760 l 651 760 q 689 744 673 760 q 705 705 705 728 l 705 488 q 689 450 705 466 q 651 434 673 434 q 613 450 629 434 q 597 488 597 466 l 597 651 l 109 651 q 70 667 86 651 q 54 705 54 683 z "},"­":{"ha":543,"x_min":54,"x_max":488,"o":"m 54 380 q 70 418 54 402 q 109 434 86 434 l 434 434 q 472 418 456 434 q 488 380 488 402 q 472 341 488 357 q 434 326 456 326 l 109 326 q 70 341 86 326 q 54 380 54 357 z "},"®":{"ha":1194,"x_min":54,"x_max":1136,"o":"m 54 541 q 213 923 54 765 q 595 1082 371 1082 q 978 923 819 1082 q 1136 541 1136 765 q 978 158 1136 317 q 595 0 819 0 q 213 158 371 0 q 54 541 54 317 m 138 541 q 272 217 138 351 q 595 83 406 83 q 919 217 785 83 q 1053 541 1053 351 q 919 864 1053 730 q 595 998 785 998 q 272 864 406 998 q 138 541 138 730 m 380 221 l 380 861 q 390 886 380 876 q 415 897 401 897 l 593 897 q 744 834 682 897 q 807 684 807 772 q 744 532 807 595 q 682 488 715 504 l 836 240 q 842 221 842 232 q 832 196 842 206 q 807 185 821 185 q 776 203 787 185 l 609 471 q 593 470 601 470 l 451 470 l 451 221 q 440 196 451 206 q 415 185 430 185 q 390 196 401 185 q 380 221 380 206 m 451 541 l 593 541 q 694 583 652 541 q 736 684 736 624 q 694 784 736 743 q 593 825 652 825 l 451 825 l 451 541 z "},"¯":{"ha":760,"x_min":54,"x_max":705,"o":"m 54 1248 q 70 1286 54 1270 q 109 1302 86 1302 l 651 1302 q 689 1286 673 1302 q 705 1248 705 1270 q 689 1210 705 1225 q 651 1194 673 1194 l 109 1194 q 70 1210 86 1194 q 54 1248 54 1225 z "},"°":{"ha":651,"x_min":54,"x_max":597,"o":"m 54 814 q 134 1006 54 926 q 326 1085 213 1085 q 517 1006 438 1085 q 597 814 597 926 q 517 622 597 701 q 326 543 438 543 q 134 622 213 543 q 54 814 54 701 m 163 814 q 211 699 163 747 q 326 651 258 651 q 440 699 393 651 q 488 814 488 747 q 440 929 488 881 q 326 977 393 977 q 211 929 258 977 q 163 814 163 881 z "},"±":{"ha":760,"x_min":54,"x_max":705,"o":"m 54 54 q 70 93 54 77 q 109 109 86 109 l 651 109 q 689 93 673 109 q 705 54 705 77 q 689 16 705 32 q 651 0 673 0 l 109 0 q 70 16 86 0 q 54 54 54 32 m 54 543 q 70 581 54 565 q 109 597 86 597 l 326 597 l 326 814 q 341 852 326 836 q 380 868 357 868 q 418 852 402 868 q 434 814 434 836 l 434 597 l 651 597 q 689 581 673 597 q 705 543 705 565 q 689 504 705 520 q 651 488 673 488 l 434 488 l 434 271 q 418 233 434 249 q 380 217 402 217 q 341 233 357 217 q 326 271 326 249 l 326 488 l 109 488 q 70 504 86 488 q 54 543 54 520 z "},"²":{"ha":434,"x_min":54,"x_max":376,"o":"m 54 575 q 62 594 54 586 l 291 848 q 323 924 323 880 q 291 1000 323 968 q 216 1031 260 1031 q 139 1000 171 1031 q 108 924 108 968 q 100 905 108 913 q 81 897 92 897 q 62 905 70 897 q 54 924 54 913 q 101 1038 54 991 q 216 1085 149 1085 q 329 1038 282 1085 q 376 924 376 991 q 329 810 376 857 l 142 602 l 350 602 q 369 594 361 602 q 376 575 376 586 q 369 556 376 564 q 350 548 361 548 l 81 548 q 62 556 70 548 q 54 575 54 564 z "},"³":{"ha":434,"x_min":54,"x_max":379,"o":"m 54 706 q 62 725 54 718 q 81 733 70 733 q 100 725 92 733 q 109 706 109 718 q 140 630 109 661 q 217 598 172 598 q 293 630 262 598 q 325 706 325 661 q 293 783 325 751 q 217 814 262 814 q 198 822 205 814 q 190 842 190 830 q 198 861 190 852 q 217 869 205 869 q 274 892 250 869 q 298 949 298 916 q 274 1007 298 983 q 217 1031 250 1031 q 159 1007 183 1031 q 136 949 136 983 q 127 931 136 939 q 109 923 119 923 q 89 931 97 923 q 81 949 81 939 q 121 1045 81 1006 q 217 1085 161 1085 q 312 1045 273 1085 q 352 949 352 1006 q 302 844 352 887 q 332 821 318 835 q 379 706 379 773 q 332 591 379 639 q 217 544 284 544 q 102 591 149 544 q 54 706 54 639 z "},"´":{"ha":380,"x_min":54,"x_max":326,"o":"m 54 868 q 68 905 54 889 l 233 1069 q 271 1085 249 1085 q 310 1069 294 1085 q 326 1031 326 1053 q 311 993 326 1009 l 146 828 q 109 814 130 814 q 70 830 86 814 q 54 868 54 846 z "},"µ":{"ha":814,"x_min":54,"x_max":760,"o":"m 54 -271 l 54 705 q 70 744 54 728 q 109 760 86 760 q 147 744 131 760 q 163 705 163 728 l 163 353 q 234 180 163 252 q 407 109 306 109 q 579 180 508 109 q 651 353 651 252 l 651 705 q 667 744 651 728 q 705 760 683 760 q 744 744 728 760 q 760 705 760 728 l 760 54 q 744 16 760 32 q 705 0 728 0 q 667 16 683 0 q 651 54 651 32 l 651 98 q 407 0 549 0 q 163 98 264 0 l 163 -271 q 147 -310 163 -294 q 109 -326 131 -326 q 70 -310 86 -326 q 54 -271 54 -294 z "},"¶":{"ha":760,"x_min":54,"x_max":705,"o":"m 54 814 q 134 1006 54 926 q 326 1085 213 1085 l 651 1085 q 689 1069 673 1085 q 705 1031 705 1053 q 689 992 705 1008 q 651 977 673 977 l 651 54 q 635 16 651 32 q 597 0 619 0 q 558 16 574 0 q 543 54 543 32 l 543 977 l 434 977 l 434 54 q 418 16 434 32 q 380 0 402 0 q 341 16 357 0 q 326 54 326 32 l 326 543 q 134 622 213 543 q 54 814 54 701 z "},"·":{"ha":271,"x_min":54,"x_max":217,"o":"m 54 515 q 78 573 54 549 q 136 597 102 597 q 193 573 170 597 q 217 515 217 549 q 193 458 217 481 q 136 434 170 434 q 78 458 102 434 q 54 515 54 481 z "},"¸":{"ha":434,"x_min":54,"x_max":380,"o":"m 54 -224 q 70 -185 54 -201 q 109 -170 86 -170 q 138 -178 125 -170 l 191 -210 q 217 -217 203 -217 q 255 -208 239 -217 q 271 -183 271 -199 q 255 -158 271 -168 q 217 -149 239 -149 q 179 -133 195 -149 q 163 -95 163 -117 q 165 -77 163 -85 l 192 16 q 206 39 196 28 q 244 54 222 54 q 282 38 267 54 q 298 0 298 22 q 297 -13 298 -7 l 286 -54 q 332 -81 311 -64 q 380 -183 380 -123 q 332 -284 380 -243 q 217 -326 284 -326 q 140 -306 177 -326 l 78 -269 q 54 -224 54 -250 z "},"¹":{"ha":326,"x_min":81,"x_max":216,"o":"m 81 1031 q 90 1050 81 1042 q 98 1057 94 1055 l 180 1084 q 189 1085 184 1085 q 208 1077 200 1085 q 216 1058 216 1069 l 216 573 q 208 554 216 562 q 189 546 200 546 q 170 554 178 546 q 162 573 162 562 l 162 1021 l 119 1006 q 109 1004 114 1004 q 89 1012 97 1004 q 81 1031 81 1020 z "},"º":{"ha":434,"x_min":54,"x_max":378,"o":"m 54 816 q 121 1046 54 977 q 216 1085 160 1085 q 311 1046 272 1085 q 378 816 378 977 q 311 585 378 654 q 216 546 272 546 q 121 585 160 546 q 54 816 54 654 m 109 816 q 159 624 109 681 q 216 600 182 600 q 273 624 250 600 q 324 816 324 681 q 273 1007 324 950 q 216 1031 250 1031 q 159 1007 182 1031 q 109 816 109 950 z "},"»":{"ha":651,"x_min":54,"x_max":597,"o":"m 54 54 q 59 77 54 66 l 210 380 l 59 682 q 54 705 54 692 q 70 743 54 727 q 109 759 86 759 q 146 743 131 759 q 159 726 155 735 l 319 406 q 326 379 326 393 q 317 350 326 365 l 159 33 q 146 16 155 24 q 109 0 131 0 q 70 16 86 0 q 54 54 54 32 m 326 54 q 330 77 326 66 l 481 380 l 330 682 q 326 705 326 692 q 341 743 326 727 q 380 759 357 759 q 418 743 402 759 q 430 726 426 735 l 590 406 q 597 379 597 393 q 589 350 597 365 l 430 33 q 418 16 426 24 q 380 0 402 0 q 341 16 357 0 q 326 54 326 32 z "},"¼":{"ha":977,"x_min":54,"x_max":922,"o":"m 54 1021 q 64 1044 54 1034 q 75 1051 69 1048 l 173 1084 q 184 1086 178 1086 q 208 1076 198 1086 q 217 1053 217 1067 l 217 467 q 208 444 217 453 q 184 434 198 434 q 161 444 171 434 q 152 467 152 453 l 152 1008 l 100 990 q 87 988 94 988 q 64 998 73 988 q 54 1021 54 1007 m 109 54 q 117 83 109 71 l 770 1064 q 814 1085 785 1085 q 852 1069 836 1085 q 868 1031 868 1053 q 860 1002 868 1015 l 210 28 q 163 0 192 0 q 124 16 140 0 q 109 54 109 32 m 467 195 q 473 214 467 206 l 766 637 q 769 642 767 640 q 792 651 779 651 q 815 642 806 651 q 825 618 825 632 l 825 228 l 890 228 q 913 218 903 228 q 922 195 922 209 q 913 172 922 182 q 890 163 903 163 l 825 163 l 825 33 q 815 9 825 19 q 792 0 806 0 q 769 9 779 0 q 760 33 760 19 l 760 163 l 499 163 q 476 172 486 163 q 467 195 467 182 m 562 228 l 760 228 l 760 514 l 562 228 z "},"½":{"ha":1085,"x_min":54,"x_max":1031,"o":"m 54 1021 q 64 1044 54 1034 q 75 1051 69 1048 l 173 1084 q 184 1086 178 1086 q 208 1076 198 1086 q 217 1053 217 1067 l 217 467 q 208 444 217 453 q 184 434 198 434 q 161 444 171 434 q 152 467 152 453 l 152 1008 l 100 990 q 87 988 94 988 q 64 998 73 988 q 54 1021 54 1007 m 109 54 q 117 83 109 71 l 770 1064 q 814 1085 785 1085 q 852 1069 836 1085 q 868 1031 868 1053 q 860 1002 868 1015 l 210 28 q 163 0 192 0 q 124 16 140 0 q 109 54 109 32 m 640 33 q 649 56 640 46 l 927 363 q 966 456 966 402 q 927 549 966 511 q 835 587 889 587 q 743 549 781 587 q 705 456 705 511 q 695 433 705 443 q 672 424 686 424 q 649 433 659 424 q 640 456 640 443 q 697 594 640 537 q 835 652 754 652 q 974 594 916 652 q 1031 456 1031 537 q 973 317 1031 375 l 746 65 l 998 65 q 1021 56 1011 65 q 1031 33 1031 46 q 1021 9 1031 19 q 998 0 1011 0 l 672 0 q 649 9 659 0 q 640 33 640 19 z "},"¾":{"ha":1085,"x_min":54,"x_max":1031,"o":"m 54 629 q 64 652 54 642 q 87 661 73 661 q 110 652 100 661 q 119 629 119 642 q 157 537 119 575 q 249 499 195 499 q 341 537 303 499 q 378 629 378 575 q 341 721 378 683 q 249 759 303 759 q 226 768 235 759 q 216 791 216 778 q 226 814 216 804 q 249 823 235 823 q 318 852 289 823 q 347 921 347 881 q 318 989 347 961 q 249 1018 289 1018 q 180 989 209 1018 q 152 921 152 961 q 142 898 152 907 q 119 888 132 888 q 96 898 106 888 q 87 921 87 907 q 134 1036 87 988 q 249 1083 182 1083 q 363 1036 316 1083 q 411 921 411 988 q 363 806 411 854 q 351 795 357 800 q 387 767 370 783 q 444 629 444 709 q 387 491 444 548 q 249 434 330 434 q 111 491 168 434 q 54 629 54 548 m 217 54 q 225 83 217 71 l 879 1064 q 922 1085 893 1085 q 961 1069 945 1085 q 977 1031 977 1053 q 968 1002 977 1015 l 319 28 q 271 0 300 0 q 233 16 249 0 q 217 54 217 32 m 575 195 q 581 214 575 206 l 874 637 q 878 642 876 640 q 901 651 887 651 q 924 642 914 651 q 933 618 933 632 l 933 228 l 998 228 q 1021 218 1012 228 q 1031 195 1031 209 q 1021 172 1031 182 q 998 163 1012 163 l 933 163 l 933 33 q 924 9 933 19 q 901 0 914 0 q 878 9 887 0 q 868 33 868 19 l 868 163 l 608 163 q 585 172 594 163 q 575 195 575 182 m 670 228 l 868 228 l 868 514 l 670 228 z "},"¿":{"ha":760,"x_min":54,"x_max":705,"o":"m 54 0 q 70 38 54 22 q 109 54 86 54 q 147 38 131 54 q 163 0 163 22 q 226 -154 163 -90 q 380 -217 290 -217 q 533 -154 470 -217 q 597 0 597 -90 q 533 154 597 90 l 421 258 q 326 488 326 353 q 341 527 326 511 q 380 543 357 543 q 418 527 402 543 q 434 488 434 511 q 498 334 434 398 l 610 231 q 705 0 705 135 q 610 -230 705 -135 q 380 -326 515 -326 q 150 -230 245 -326 q 54 0 54 -135 m 298 677 q 322 735 298 711 q 380 759 346 759 q 437 735 414 759 q 461 677 461 711 q 437 620 461 644 q 380 596 414 596 q 322 620 346 596 q 298 677 298 644 z "},"À":{"ha":977,"x_min":54,"x_max":922,"o":"m 54 54 q 59 77 54 67 l 436 1047 q 450 1069 440 1059 q 488 1085 466 1085 q 527 1069 511 1085 q 541 1047 536 1059 l 918 77 q 922 54 922 67 q 906 16 922 32 q 868 0 890 0 q 830 16 846 0 q 818 33 822 24 l 683 380 l 294 380 l 159 33 q 147 16 155 24 q 109 0 131 0 q 70 16 86 0 q 54 54 54 32 m 307 1356 q 323 1395 307 1379 q 361 1411 339 1411 q 400 1395 384 1411 l 565 1230 q 578 1194 578 1215 q 563 1155 578 1171 q 524 1139 547 1139 q 487 1154 503 1139 l 322 1318 q 307 1356 307 1335 m 336 488 l 641 488 l 488 881 l 336 488 z "},"Á":{"ha":977,"x_min":54,"x_max":922,"o":"m 54 54 q 59 77 54 67 l 436 1047 q 450 1069 440 1059 q 488 1085 466 1085 q 527 1069 511 1085 q 541 1047 536 1059 l 918 77 q 922 54 922 67 q 906 16 922 32 q 868 0 890 0 q 830 16 846 0 q 818 33 822 24 l 683 380 l 294 380 l 159 33 q 147 16 155 24 q 109 0 131 0 q 70 16 86 0 q 54 54 54 32 m 336 488 l 641 488 l 488 881 l 336 488 m 398 1194 q 412 1230 398 1215 l 576 1395 q 615 1411 593 1411 q 653 1395 637 1411 q 669 1356 669 1379 q 654 1318 669 1335 l 490 1154 q 452 1139 474 1139 q 414 1155 430 1139 q 398 1194 398 1171 z "},"Â":{"ha":977,"x_min":54,"x_max":922,"o":"m 54 54 q 59 77 54 67 l 436 1047 q 450 1069 440 1059 q 488 1085 466 1085 q 527 1069 511 1085 q 541 1047 536 1059 l 918 77 q 922 54 922 67 q 906 16 922 32 q 868 0 890 0 q 830 16 846 0 q 818 33 822 24 l 683 380 l 294 380 l 159 33 q 147 16 155 24 q 109 0 131 0 q 70 16 86 0 q 54 54 54 32 m 271 1221 q 298 1268 271 1248 l 460 1376 q 488 1383 473 1383 q 516 1376 504 1383 l 678 1268 q 705 1221 705 1248 q 689 1182 705 1198 q 651 1166 673 1166 q 617 1178 631 1166 l 488 1263 l 359 1178 q 326 1166 345 1166 q 287 1182 303 1166 q 271 1221 271 1198 m 336 488 l 641 488 l 488 881 l 336 488 z "},"Ã":{"ha":977,"x_min":54,"x_max":922,"o":"m 54 54 q 59 77 54 67 l 436 1047 q 450 1069 440 1059 q 488 1085 466 1085 q 527 1069 511 1085 q 541 1047 536 1059 l 918 77 q 922 54 922 67 q 906 16 922 32 q 868 0 890 0 q 830 16 846 0 q 818 33 822 24 l 683 380 l 294 380 l 159 33 q 147 16 155 24 q 109 0 131 0 q 70 16 86 0 q 54 54 54 32 m 209 1269 q 225 1307 209 1291 q 263 1323 241 1323 q 301 1308 285 1323 q 378 1276 333 1276 q 446 1299 416 1276 q 589 1354 506 1354 q 743 1290 680 1354 q 758 1252 758 1274 q 742 1214 758 1230 q 704 1198 726 1198 q 666 1213 682 1198 q 589 1245 634 1245 q 522 1221 551 1245 q 378 1167 460 1167 q 224 1231 288 1167 q 209 1269 209 1247 m 336 488 l 641 488 l 488 881 l 336 488 z "},"Ä":{"ha":977,"x_min":54,"x_max":922,"o":"m 54 54 q 59 77 54 67 l 436 1047 q 450 1069 440 1059 q 488 1085 466 1085 q 527 1069 511 1085 q 541 1047 536 1059 l 918 77 q 922 54 922 67 q 906 16 922 32 q 868 0 890 0 q 830 16 846 0 q 818 33 822 24 l 683 380 l 294 380 l 159 33 q 147 16 155 24 q 109 0 131 0 q 70 16 86 0 q 54 54 54 32 m 258 1248 q 278 1296 258 1276 q 326 1316 298 1316 q 373 1296 353 1316 q 393 1248 393 1276 q 373 1200 393 1220 q 326 1180 353 1180 q 278 1200 298 1180 q 258 1248 258 1220 m 336 488 l 641 488 l 488 881 l 336 488 m 583 1248 q 603 1296 583 1276 q 651 1316 623 1316 q 699 1296 679 1316 q 719 1248 719 1276 q 699 1200 719 1220 q 651 1180 679 1180 q 603 1200 623 1180 q 583 1248 583 1220 z "},"Å":{"ha":977,"x_min":54,"x_max":922,"o":"m 54 54 q 59 77 54 67 l 436 1047 q 450 1069 440 1059 q 488 1085 466 1085 q 527 1069 511 1085 q 541 1047 536 1059 l 918 77 q 922 54 922 67 q 906 16 922 32 q 868 0 890 0 q 830 16 846 0 q 818 33 822 24 l 683 380 l 294 380 l 159 33 q 147 16 155 24 q 109 0 131 0 q 70 16 86 0 q 54 54 54 32 m 336 488 l 641 488 l 488 881 l 336 488 m 351 1274 q 391 1371 351 1331 q 488 1411 431 1411 q 585 1371 545 1411 q 625 1274 625 1331 q 585 1177 625 1217 q 488 1137 545 1137 q 391 1177 431 1137 q 351 1274 351 1217 m 420 1274 q 440 1226 420 1246 q 488 1206 460 1206 q 536 1226 516 1206 q 556 1274 556 1246 q 536 1322 556 1302 q 488 1342 516 1342 q 440 1322 460 1342 q 420 1274 420 1302 z "},"Æ":{"ha":1194,"x_min":54,"x_max":1139,"o":"m 54 54 q 61 81 54 69 l 605 1060 q 651 1085 621 1085 l 1085 1085 q 1123 1069 1107 1085 q 1139 1031 1139 1053 q 1123 992 1139 1008 q 1085 977 1107 977 l 705 977 l 705 543 l 977 543 q 1015 527 999 543 q 1031 488 1031 511 q 1015 450 1031 466 q 977 434 999 434 l 705 434 l 705 109 l 1085 109 q 1123 93 1107 109 q 1139 54 1139 77 q 1123 16 1139 32 q 1085 0 1107 0 l 651 0 q 613 16 629 0 q 597 54 597 32 l 597 434 l 382 434 l 155 25 q 109 0 138 0 q 70 16 86 0 q 54 54 54 32 m 442 543 l 597 543 l 597 821 l 442 543 z "},"Ç":{"ha":1004,"x_min":54,"x_max":958,"o":"m 54 543 q 213 926 54 767 q 597 1085 372 1085 q 942 961 791 1085 q 958 922 958 945 q 942 884 958 900 q 903 868 926 868 q 865 884 881 868 q 597 977 750 977 q 290 849 417 977 q 163 543 163 722 q 290 236 163 363 q 597 109 417 109 q 868 203 752 109 q 899 213 882 213 q 938 197 922 213 q 954 159 954 181 q 938 121 954 136 q 597 0 787 0 q 213 159 372 0 q 54 543 54 318 m 343 -224 q 359 -185 343 -201 q 397 -170 375 -170 q 427 -178 414 -170 l 479 -210 q 506 -217 492 -217 q 544 -208 528 -217 q 560 -183 560 -199 q 544 -158 560 -168 q 506 -149 528 -149 q 468 -133 484 -149 q 452 -95 452 -117 q 454 -77 452 -85 l 481 16 q 495 39 485 28 q 533 54 511 54 q 571 38 555 54 q 587 0 587 22 q 586 -13 587 -7 l 574 -54 q 621 -81 600 -64 q 669 -183 669 -123 q 621 -284 669 -243 q 506 -326 573 -326 q 429 -306 466 -326 l 367 -269 q 343 -224 343 -250 z "},"È":{"ha":868,"x_min":55,"x_max":814,"o":"m 55 54 l 55 1031 q 71 1069 55 1053 q 109 1085 87 1085 l 760 1085 q 799 1069 783 1085 q 814 1031 814 1053 q 799 992 814 1008 q 760 977 783 977 l 163 977 l 163 597 l 597 597 q 636 581 620 597 q 652 543 652 565 q 636 504 652 520 q 597 488 620 488 l 163 488 l 163 109 l 760 109 q 799 93 783 109 q 814 54 814 77 q 799 16 814 32 q 760 0 783 0 l 109 0 q 71 16 87 0 q 55 54 55 32 m 254 1356 q 270 1395 254 1379 q 309 1411 286 1411 q 347 1395 331 1411 l 512 1230 q 526 1194 526 1215 q 510 1155 526 1171 q 471 1139 494 1139 q 434 1154 450 1139 l 269 1318 q 254 1356 254 1335 z "},"É":{"ha":868,"x_min":55,"x_max":814,"o":"m 55 54 l 55 1031 q 71 1069 55 1053 q 109 1085 87 1085 l 760 1085 q 799 1069 783 1085 q 814 1031 814 1053 q 799 992 814 1008 q 760 977 783 977 l 163 977 l 163 597 l 597 597 q 636 581 620 597 q 652 543 652 565 q 636 504 652 520 q 597 488 620 488 l 163 488 l 163 109 l 760 109 q 799 93 783 109 q 814 54 814 77 q 799 16 814 32 q 760 0 783 0 l 109 0 q 71 16 87 0 q 55 54 55 32 m 345 1194 q 359 1230 345 1215 l 524 1395 q 562 1411 540 1411 q 601 1395 585 1411 q 616 1356 616 1379 q 602 1318 616 1335 l 437 1154 q 399 1139 421 1139 q 361 1155 377 1139 q 345 1194 345 1171 z "},"Ê":{"ha":868,"x_min":55,"x_max":814,"o":"m 55 54 l 55 1031 q 71 1069 55 1053 q 109 1085 87 1085 l 760 1085 q 799 1069 783 1085 q 814 1031 814 1053 q 799 992 814 1008 q 760 977 783 977 l 163 977 l 163 597 l 597 597 q 636 581 620 597 q 652 543 652 565 q 636 504 652 520 q 597 488 620 488 l 163 488 l 163 109 l 760 109 q 799 93 783 109 q 814 54 814 77 q 799 16 814 32 q 760 0 783 0 l 109 0 q 71 16 87 0 q 55 54 55 32 m 217 1221 q 244 1268 217 1248 l 406 1376 q 434 1383 418 1383 q 462 1376 450 1383 l 624 1268 q 651 1221 651 1248 q 635 1182 651 1198 q 597 1166 619 1166 q 563 1178 577 1166 l 434 1263 l 305 1178 q 271 1166 291 1166 q 233 1182 249 1166 q 217 1221 217 1198 z "},"Ë":{"ha":868,"x_min":55,"x_max":814,"o":"m 55 54 l 55 1031 q 71 1069 55 1053 q 109 1085 87 1085 l 760 1085 q 799 1069 783 1085 q 814 1031 814 1053 q 799 992 814 1008 q 760 977 783 977 l 163 977 l 163 597 l 597 597 q 636 581 620 597 q 652 543 652 565 q 636 504 652 520 q 597 488 620 488 l 163 488 l 163 109 l 760 109 q 799 93 783 109 q 814 54 814 77 q 799 16 814 32 q 760 0 783 0 l 109 0 q 71 16 87 0 q 55 54 55 32 m 205 1248 q 225 1296 205 1276 q 273 1316 245 1316 q 320 1296 300 1316 q 340 1248 340 1276 q 320 1200 340 1220 q 273 1180 300 1180 q 225 1200 245 1180 q 205 1248 205 1220 m 530 1248 q 550 1296 530 1276 q 598 1316 570 1316 q 646 1296 626 1316 q 666 1248 666 1276 q 646 1200 666 1220 q 598 1180 626 1180 q 550 1200 570 1180 q 530 1248 530 1220 z "},"Ì":{"ha":326,"x_min":-18,"x_max":254,"o":"m -18 1356 q -2 1395 -18 1379 q 37 1411 14 1411 q 75 1395 59 1411 l 240 1230 q 254 1194 254 1215 q 238 1155 254 1171 q 199 1139 222 1139 q 162 1154 178 1139 l -3 1318 q -18 1356 -18 1335 m 109 54 l 109 1031 q 124 1069 109 1053 q 163 1085 140 1085 q 201 1069 185 1085 q 217 1031 217 1053 l 217 54 q 201 16 217 32 q 163 0 185 0 q 124 16 140 0 q 109 54 109 32 z "},"Í":{"ha":326,"x_min":73,"x_max":344,"o":"m 73 1194 q 86 1230 73 1215 l 251 1395 q 290 1411 267 1411 q 328 1395 312 1411 q 344 1356 344 1379 q 329 1318 344 1335 l 164 1154 q 127 1139 149 1139 q 89 1155 104 1139 q 73 1194 73 1171 m 109 54 l 109 1031 q 124 1069 109 1053 q 163 1085 140 1085 q 201 1069 185 1085 q 217 1031 217 1053 l 217 54 q 201 16 217 32 q 163 0 185 0 q 124 16 140 0 q 109 54 109 32 z "},"Î":{"ha":326,"x_min":-54,"x_max":380,"o":"m -54 1221 q -26 1268 -54 1248 l 136 1376 q 163 1383 148 1383 q 191 1376 179 1383 l 353 1268 q 380 1221 380 1248 q 365 1182 380 1198 q 326 1166 349 1166 q 292 1178 307 1166 l 163 1263 l 35 1178 q 1 1166 20 1166 q -38 1182 -22 1166 q -54 1221 -54 1198 m 109 54 l 109 1031 q 124 1069 109 1053 q 163 1085 140 1085 q 201 1069 185 1085 q 217 1031 217 1053 l 217 54 q 201 16 217 32 q 163 0 185 0 q 124 16 140 0 q 109 54 109 32 z "},"Ï":{"ha":326,"x_min":-67,"x_max":394,"o":"m -67 1248 q -47 1296 -67 1276 q 1 1316 -27 1316 q 48 1296 28 1316 q 68 1248 68 1276 q 48 1200 68 1220 q 1 1180 28 1180 q -47 1200 -27 1180 q -67 1248 -67 1220 m 109 54 l 109 1031 q 124 1069 109 1053 q 163 1085 140 1085 q 201 1069 185 1085 q 217 1031 217 1053 l 217 54 q 201 16 217 32 q 163 0 185 0 q 124 16 140 0 q 109 54 109 32 m 258 1248 q 278 1296 258 1276 q 326 1316 298 1316 q 374 1296 354 1316 q 394 1248 394 1276 q 374 1200 394 1220 q 326 1180 354 1180 q 278 1200 298 1180 q 258 1248 258 1220 z "},"Ð":{"ha":1031,"x_min":0,"x_max":976,"o":"m 0 543 q 16 581 0 565 q 54 597 32 597 l 162 597 l 162 1031 q 178 1069 162 1053 q 216 1085 194 1085 l 433 1085 q 817 926 658 1085 q 976 543 976 767 q 817 159 976 318 q 433 0 658 0 l 216 0 q 178 16 194 0 q 162 54 162 32 l 162 488 l 54 488 q 16 504 32 488 q 0 543 0 520 m 271 109 l 433 109 q 740 236 613 109 q 867 543 867 363 q 740 849 867 722 q 433 977 613 977 l 271 977 l 271 597 l 488 597 q 526 581 510 597 q 542 543 542 565 q 526 504 542 520 q 488 488 510 488 l 271 488 l 271 109 z "},"Ñ":{"ha":977,"x_min":54,"x_max":922,"o":"m 54 54 l 54 1031 q 70 1069 54 1053 q 109 1085 86 1085 q 151 1065 133 1085 l 814 212 l 814 1031 q 830 1069 814 1053 q 868 1085 846 1085 q 906 1069 890 1085 q 922 1031 922 1053 l 922 54 q 906 16 922 32 q 868 0 890 0 q 827 18 844 0 l 163 872 l 163 54 q 147 16 163 32 q 109 0 131 0 q 70 16 86 0 q 54 54 54 32 m 209 1269 q 225 1307 209 1291 q 263 1323 241 1323 q 301 1308 285 1323 q 378 1276 333 1276 q 446 1299 416 1276 q 589 1354 506 1354 q 743 1290 680 1354 q 758 1252 758 1274 q 742 1214 758 1230 q 704 1198 726 1198 q 666 1213 682 1198 q 589 1245 634 1245 q 522 1221 551 1245 q 378 1167 460 1167 q 224 1231 288 1167 q 209 1269 209 1247 z "},"Ò":{"ha":1194,"x_min":54,"x_max":1139,"o":"m 54 543 q 213 926 54 767 q 597 1085 372 1085 q 980 926 821 1085 q 1139 543 1139 767 q 980 159 1139 318 q 597 0 821 0 q 213 159 372 0 q 54 543 54 318 m 163 543 q 290 236 163 363 q 597 109 417 109 q 904 236 777 109 q 1031 543 1031 363 q 904 849 1031 722 q 597 977 777 977 q 290 849 417 977 q 163 543 163 722 m 470 1356 q 486 1395 470 1379 q 524 1411 502 1411 q 563 1395 547 1411 l 728 1230 q 741 1194 741 1215 q 725 1155 741 1171 q 687 1139 709 1139 q 650 1154 665 1139 l 485 1318 q 470 1356 470 1335 z "},"Ó":{"ha":1194,"x_min":54,"x_max":1139,"o":"m 54 543 q 213 926 54 767 q 597 1085 372 1085 q 980 926 821 1085 q 1139 543 1139 767 q 980 159 1139 318 q 597 0 821 0 q 213 159 372 0 q 54 543 54 318 m 163 543 q 290 236 163 363 q 597 109 417 109 q 904 236 777 109 q 1031 543 1031 363 q 904 849 1031 722 q 597 977 777 977 q 290 849 417 977 q 163 543 163 722 m 459 1194 q 473 1230 459 1215 l 637 1395 q 676 1411 654 1411 q 714 1395 699 1411 q 730 1356 730 1379 q 715 1318 730 1335 l 551 1154 q 513 1139 535 1139 q 475 1155 491 1139 q 459 1194 459 1171 z "},"Ô":{"ha":1194,"x_min":54,"x_max":1139,"o":"m 54 543 q 213 926 54 767 q 597 1085 372 1085 q 980 926 821 1085 q 1139 543 1139 767 q 980 159 1139 318 q 597 0 821 0 q 213 159 372 0 q 54 543 54 318 m 163 543 q 290 236 163 363 q 597 109 417 109 q 904 236 777 109 q 1031 543 1031 363 q 904 849 1031 722 q 597 977 777 977 q 290 849 417 977 q 163 543 163 722 m 380 1221 q 407 1268 380 1248 l 569 1376 q 597 1383 581 1383 q 625 1376 612 1383 l 787 1268 q 814 1221 814 1248 q 798 1182 814 1198 q 760 1166 782 1166 q 726 1178 740 1166 l 597 1263 l 468 1178 q 434 1166 454 1166 q 396 1182 412 1166 q 380 1221 380 1198 z "},"Õ":{"ha":1194,"x_min":54,"x_max":1139,"o":"m 54 543 q 213 926 54 767 q 597 1085 372 1085 q 980 926 821 1085 q 1139 543 1139 767 q 980 159 1139 318 q 597 0 821 0 q 213 159 372 0 q 54 543 54 318 m 163 543 q 290 236 163 363 q 597 109 417 109 q 904 236 777 109 q 1031 543 1031 363 q 904 849 1031 722 q 597 977 777 977 q 290 849 417 977 q 163 543 163 722 m 317 1269 q 333 1307 317 1291 q 372 1323 349 1323 q 410 1308 393 1323 q 486 1276 441 1276 q 554 1299 524 1276 q 698 1354 614 1354 q 852 1290 788 1354 q 867 1252 867 1274 q 851 1214 867 1230 q 812 1198 835 1198 q 774 1213 791 1198 q 698 1245 743 1245 q 630 1221 659 1245 q 486 1167 569 1167 q 332 1231 396 1167 q 317 1269 317 1247 z "},"Ö":{"ha":1194,"x_min":54,"x_max":1139,"o":"m 54 543 q 213 926 54 767 q 597 1085 372 1085 q 980 926 821 1085 q 1139 543 1139 767 q 980 159 1139 318 q 597 0 821 0 q 213 159 372 0 q 54 543 54 318 m 163 543 q 290 236 163 363 q 597 109 417 109 q 904 236 777 109 q 1031 543 1031 363 q 904 849 1031 722 q 597 977 777 977 q 290 849 417 977 q 163 543 163 722 m 366 1248 q 386 1296 366 1276 q 434 1316 406 1316 q 482 1296 462 1316 q 502 1248 502 1276 q 482 1200 502 1220 q 434 1180 462 1180 q 386 1200 406 1180 q 366 1248 366 1220 m 692 1248 q 712 1296 692 1276 q 760 1316 732 1316 q 807 1296 787 1316 q 827 1248 827 1276 q 807 1200 827 1220 q 760 1180 787 1180 q 712 1200 732 1180 q 692 1248 692 1220 z "},"×":{"ha":651,"x_min":54,"x_max":597,"o":"m 54 271 q 69 309 54 293 l 248 488 l 69 667 q 54 705 54 684 q 70 744 54 728 q 109 760 86 760 q 148 743 131 760 l 326 566 l 503 743 q 543 760 520 760 q 581 744 565 760 q 597 705 597 728 q 582 667 597 684 l 403 488 l 582 309 q 597 271 597 293 q 581 233 597 249 q 543 217 565 217 q 505 231 521 217 l 326 411 l 146 231 q 109 217 130 217 q 70 233 86 217 q 54 271 54 249 z "},"Ø":{"ha":1194,"x_min":54,"x_max":1139,"o":"m 54 54 q 68 92 54 76 l 176 199 q 54 543 54 346 q 213 926 54 767 q 597 1085 372 1085 q 940 963 793 1085 l 1046 1069 q 1085 1085 1063 1085 q 1123 1069 1107 1085 q 1139 1031 1139 1053 q 1127 996 1139 1011 l 1017 886 q 1139 543 1139 739 q 980 159 1139 318 q 597 0 821 0 q 254 122 400 0 l 147 16 q 109 0 131 0 q 70 16 86 0 q 54 54 54 32 m 163 543 q 254 277 163 391 l 863 886 q 597 977 749 977 q 290 849 417 977 q 163 543 163 722 m 331 199 q 597 109 445 109 q 904 236 777 109 q 1031 543 1031 363 q 940 809 1031 694 l 331 199 z "},"Ù":{"ha":868,"x_min":54,"x_max":814,"o":"m 54 380 l 54 1031 q 70 1069 54 1053 q 109 1085 86 1085 q 147 1069 131 1085 q 163 1031 163 1053 l 163 380 q 242 188 163 267 q 434 109 321 109 q 626 188 547 109 q 705 380 705 267 l 705 1031 q 721 1069 705 1053 q 760 1085 737 1085 q 798 1069 782 1085 q 814 1031 814 1053 l 814 380 q 703 111 814 222 q 434 0 591 0 q 165 111 277 0 q 54 380 54 222 m 253 1356 q 269 1395 253 1379 q 307 1411 285 1411 q 346 1395 330 1411 l 511 1230 q 524 1194 524 1215 q 508 1155 524 1171 q 470 1139 492 1139 q 433 1154 448 1139 l 268 1318 q 253 1356 253 1335 z "},"Ú":{"ha":868,"x_min":54,"x_max":814,"o":"m 54 380 l 54 1031 q 70 1069 54 1053 q 109 1085 86 1085 q 147 1069 131 1085 q 163 1031 163 1053 l 163 380 q 242 188 163 267 q 434 109 321 109 q 626 188 547 109 q 705 380 705 267 l 705 1031 q 721 1069 705 1053 q 760 1085 737 1085 q 798 1069 782 1085 q 814 1031 814 1053 l 814 380 q 703 111 814 222 q 434 0 591 0 q 165 111 277 0 q 54 380 54 222 m 344 1194 q 357 1230 344 1215 l 522 1395 q 561 1411 538 1411 q 599 1395 583 1411 q 615 1356 615 1379 q 600 1318 615 1335 l 435 1154 q 398 1139 420 1139 q 360 1155 376 1139 q 344 1194 344 1171 z "},"Û":{"ha":868,"x_min":54,"x_max":814,"o":"m 54 380 l 54 1031 q 70 1069 54 1053 q 109 1085 86 1085 q 147 1069 131 1085 q 163 1031 163 1053 l 163 380 q 242 188 163 267 q 434 109 321 109 q 626 188 547 109 q 705 380 705 267 l 705 1031 q 721 1069 705 1053 q 760 1085 737 1085 q 798 1069 782 1085 q 814 1031 814 1053 l 814 380 q 703 111 814 222 q 434 0 591 0 q 165 111 277 0 q 54 380 54 222 m 217 1221 q 244 1268 217 1248 l 406 1376 q 434 1383 418 1383 q 462 1376 450 1383 l 624 1268 q 651 1221 651 1248 q 635 1182 651 1198 q 597 1166 619 1166 q 563 1178 577 1166 l 434 1263 l 305 1178 q 271 1166 291 1166 q 233 1182 249 1166 q 217 1221 217 1198 z "},"Ü":{"ha":868,"x_min":54,"x_max":814,"o":"m 54 380 l 54 1031 q 70 1069 54 1053 q 109 1085 86 1085 q 147 1069 131 1085 q 163 1031 163 1053 l 163 380 q 242 188 163 267 q 434 109 321 109 q 626 188 547 109 q 705 380 705 267 l 705 1031 q 721 1069 705 1053 q 760 1085 737 1085 q 798 1069 782 1085 q 814 1031 814 1053 l 814 380 q 703 111 814 222 q 434 0 591 0 q 165 111 277 0 q 54 380 54 222 m 203 1248 q 223 1296 203 1276 q 271 1316 243 1316 q 319 1296 299 1316 q 339 1248 339 1276 q 319 1200 339 1220 q 271 1180 299 1180 q 223 1200 243 1180 q 203 1248 203 1220 m 529 1248 q 549 1296 529 1276 q 597 1316 569 1316 q 645 1296 625 1316 q 665 1248 665 1276 q 645 1200 665 1220 q 597 1180 625 1180 q 549 1200 569 1180 q 529 1248 529 1220 z "},"Ý":{"ha":868,"x_min":54,"x_max":814,"o":"m 54 1031 q 70 1069 54 1053 q 109 1085 86 1085 q 153 1063 136 1085 l 434 641 l 715 1063 q 760 1085 732 1085 q 798 1069 782 1085 q 814 1031 814 1053 q 805 1000 814 1014 l 488 526 l 488 54 q 472 16 488 32 q 434 0 456 0 q 396 16 412 0 q 380 54 380 32 l 380 526 l 63 1000 q 54 1031 54 1014 m 344 1194 q 357 1230 344 1215 l 522 1395 q 561 1411 538 1411 q 599 1395 583 1411 q 615 1356 615 1379 q 600 1318 615 1335 l 435 1154 q 398 1139 420 1139 q 360 1155 376 1139 q 344 1194 344 1171 z "},"Þ":{"ha":868,"x_min":54,"x_max":814,"o":"m 54 54 l 54 1031 q 70 1069 54 1053 q 109 1085 86 1085 q 147 1069 131 1085 q 163 1031 163 1053 l 163 868 l 488 868 q 719 773 623 868 q 814 543 814 677 q 719 312 814 408 q 488 217 623 217 l 163 217 l 163 54 q 147 16 163 32 q 109 0 131 0 q 70 16 86 0 q 54 54 54 32 m 163 326 l 488 326 q 642 389 578 326 q 705 543 705 452 q 642 696 705 633 q 488 760 578 760 l 163 760 l 163 326 z "},"ß":{"ha":760,"x_min":54,"x_max":705,"o":"m 54 54 l 54 814 q 134 1006 54 926 q 326 1085 213 1085 q 517 1006 438 1085 q 597 814 597 926 q 534 641 597 714 q 517 588 517 618 q 555 515 517 536 q 626 463 593 496 q 705 271 705 384 q 626 79 705 159 q 434 0 547 0 q 242 79 321 0 q 224 119 224 97 q 240 158 224 142 q 279 174 256 174 q 319 157 301 174 q 434 109 367 109 q 549 156 501 109 q 597 271 597 204 q 549 387 597 338 q 507 418 530 406 q 464 452 484 431 q 407 589 407 509 q 456 716 407 661 q 488 814 488 758 q 440 929 488 881 q 326 977 393 977 q 211 929 258 977 q 163 814 163 881 l 163 54 q 147 16 163 32 q 109 0 131 0 q 70 16 86 0 q 54 54 54 32 z "},"à":{"ha":868,"x_min":54,"x_max":814,"o":"m 54 380 q 165 648 54 537 q 434 760 277 760 q 703 648 591 760 q 814 380 814 537 l 814 54 q 798 16 814 32 q 760 0 782 0 q 721 16 737 0 q 705 54 705 32 l 705 114 q 434 0 591 0 q 165 111 277 0 q 54 380 54 222 m 163 380 q 242 188 163 267 q 434 109 321 109 q 626 188 547 109 q 705 380 705 267 q 626 572 705 492 q 434 651 547 651 q 242 572 321 651 q 163 380 163 492 m 271 1031 q 287 1069 271 1053 q 326 1085 303 1085 q 364 1069 348 1085 l 529 905 q 543 868 543 889 q 527 830 543 846 q 488 814 511 814 q 451 828 467 814 l 286 993 q 271 1031 271 1009 z "},"á":{"ha":868,"x_min":54,"x_max":814,"o":"m 54 380 q 165 648 54 537 q 434 760 277 760 q 703 648 591 760 q 814 380 814 537 l 814 54 q 798 16 814 32 q 760 0 782 0 q 721 16 737 0 q 705 54 705 32 l 705 114 q 434 0 591 0 q 165 111 277 0 q 54 380 54 222 m 163 380 q 242 188 163 267 q 434 109 321 109 q 626 188 547 109 q 705 380 705 267 q 626 572 705 492 q 434 651 547 651 q 242 572 321 651 q 163 380 163 492 m 326 868 q 339 905 326 889 l 504 1069 q 543 1085 520 1085 q 581 1069 565 1085 q 597 1031 597 1053 q 582 993 597 1009 l 417 828 q 380 814 401 814 q 341 830 357 814 q 326 868 326 846 z "},"â":{"ha":868,"x_min":54,"x_max":814,"o":"m 54 380 q 165 648 54 537 q 434 760 277 760 q 703 648 591 760 q 814 380 814 537 l 814 54 q 798 16 814 32 q 760 0 782 0 q 721 16 737 0 q 705 54 705 32 l 705 114 q 434 0 591 0 q 165 111 277 0 q 54 380 54 222 m 163 380 q 242 188 163 267 q 434 109 321 109 q 626 188 547 109 q 705 380 705 267 q 626 572 705 492 q 434 651 547 651 q 242 572 321 651 q 163 380 163 492 m 217 895 q 244 943 217 922 l 406 1050 q 434 1058 418 1058 q 462 1050 450 1058 l 624 943 q 651 895 651 922 q 635 857 651 873 q 597 841 619 841 q 563 852 577 841 l 434 938 l 305 852 q 271 841 291 841 q 233 857 249 841 q 217 895 217 873 z "},"ã":{"ha":868,"x_min":54,"x_max":814,"o":"m 54 380 q 165 648 54 537 q 434 760 277 760 q 703 648 591 760 q 814 380 814 537 l 814 54 q 798 16 814 32 q 760 0 782 0 q 721 16 737 0 q 705 54 705 32 l 705 114 q 434 0 591 0 q 165 111 277 0 q 54 380 54 222 m 159 943 q 175 982 159 966 q 214 998 191 998 q 252 983 235 998 q 328 950 283 950 q 396 974 366 950 q 540 1028 456 1028 q 694 964 630 1028 q 709 926 709 948 q 693 888 709 904 q 654 872 677 872 q 616 887 633 872 q 540 920 585 920 q 472 896 501 920 q 328 842 411 842 q 174 905 238 842 q 159 943 159 922 m 163 380 q 242 188 163 267 q 434 109 321 109 q 626 188 547 109 q 705 380 705 267 q 626 572 705 492 q 434 651 547 651 q 242 572 321 651 q 163 380 163 492 z "},"ä":{"ha":868,"x_min":54,"x_max":814,"o":"m 54 380 q 165 648 54 537 q 434 760 277 760 q 703 648 591 760 q 814 380 814 537 l 814 54 q 798 16 814 32 q 760 0 782 0 q 721 16 737 0 q 705 54 705 32 l 705 114 q 434 0 591 0 q 165 111 277 0 q 54 380 54 222 m 163 380 q 242 188 163 267 q 434 109 321 109 q 626 188 547 109 q 705 380 705 267 q 626 572 705 492 q 434 651 547 651 q 242 572 321 651 q 163 380 163 492 m 203 922 q 223 970 203 950 q 271 990 243 990 q 319 970 299 990 q 339 922 339 950 q 319 874 339 895 q 271 854 299 854 q 223 874 243 854 q 203 922 203 895 m 529 922 q 549 970 529 950 q 597 990 569 990 q 645 970 625 990 q 665 922 665 950 q 645 874 665 895 q 597 854 625 854 q 549 874 569 854 q 529 922 529 895 z "},"å":{"ha":868,"x_min":54,"x_max":814,"o":"m 54 380 q 165 648 54 537 q 434 760 277 760 q 703 648 591 760 q 814 380 814 537 l 814 54 q 798 16 814 32 q 760 0 782 0 q 721 16 737 0 q 705 54 705 32 l 705 114 q 434 0 591 0 q 165 111 277 0 q 54 380 54 222 m 163 380 q 242 188 163 267 q 434 109 321 109 q 626 188 547 109 q 705 380 705 267 q 626 572 705 492 q 434 651 547 651 q 242 572 321 651 q 163 380 163 492 m 298 949 q 338 1045 298 1005 q 435 1085 378 1085 q 531 1045 491 1085 q 571 949 571 1005 q 531 852 571 892 q 435 812 491 812 q 338 852 378 812 q 298 949 298 892 m 366 949 q 386 900 366 920 q 435 880 406 880 q 483 900 463 880 q 503 949 503 920 q 483 997 503 977 q 435 1017 463 1017 q 386 997 406 1017 q 366 949 366 977 z "},"æ":{"ha":1519,"x_min":54,"x_max":1465,"o":"m 54 380 q 165 648 54 537 q 434 760 277 760 q 703 648 591 760 q 760 577 736 615 q 817 648 783 615 q 1085 760 928 760 q 1354 648 1242 760 q 1465 380 1465 537 q 1449 341 1465 357 q 1411 326 1433 326 l 819 326 q 893 188 833 248 q 1085 109 972 109 q 1260 173 1187 109 q 1294 184 1275 184 q 1332 169 1316 184 q 1348 130 1348 153 q 1333 92 1348 108 q 1085 0 1227 0 q 814 114 928 0 l 814 54 q 798 16 814 32 q 760 0 782 0 q 721 16 737 0 q 705 54 705 32 l 705 114 q 434 0 591 0 q 165 111 277 0 q 54 380 54 222 m 163 380 q 242 188 163 267 q 434 109 321 109 q 626 188 547 109 q 705 380 705 267 q 626 572 705 492 q 434 651 547 651 q 242 572 321 651 q 163 380 163 492 m 819 434 l 1352 434 q 1277 572 1337 512 q 1085 651 1198 651 q 893 572 972 651 q 819 434 833 512 z "},"ç":{"ha":760,"x_min":54,"x_max":701,"o":"m 54 380 q 165 648 54 537 q 434 760 277 760 q 682 668 576 760 q 701 626 701 651 q 685 588 701 604 q 646 572 669 572 q 612 584 627 572 q 434 651 536 651 q 242 572 321 651 q 163 380 163 492 q 242 188 163 267 q 434 109 321 109 q 611 175 536 109 q 644 186 625 186 q 683 170 667 186 q 699 132 699 154 q 682 92 699 109 q 434 0 576 0 q 165 111 277 0 q 54 380 54 222 m 215 -224 q 231 -185 215 -201 q 269 -170 247 -170 q 298 -178 286 -170 l 351 -210 q 378 -217 364 -217 q 416 -208 400 -217 q 432 -183 432 -199 q 416 -158 432 -168 q 378 -149 400 -149 q 339 -133 355 -149 q 323 -95 323 -117 q 326 -77 323 -85 l 353 16 q 367 39 357 28 q 405 54 382 54 q 443 38 427 54 q 459 0 459 22 q 458 -13 459 -7 l 446 -54 q 493 -81 471 -64 q 541 -183 541 -123 q 493 -284 541 -243 q 378 -326 445 -326 q 300 -306 338 -326 l 239 -269 q 215 -224 215 -250 z "},"è":{"ha":868,"x_min":54,"x_max":814,"o":"m 54 380 q 165 648 54 537 q 434 760 277 760 q 703 648 591 760 q 814 380 814 537 q 798 341 814 357 q 760 326 782 326 l 168 326 q 242 188 182 248 q 434 109 321 109 q 609 173 536 109 q 643 184 624 184 q 681 169 665 184 q 697 130 697 153 q 682 92 697 108 q 434 0 576 0 q 165 111 277 0 q 54 380 54 222 m 168 434 l 701 434 q 626 572 686 512 q 434 651 547 651 q 242 572 321 651 q 168 434 182 512 m 271 1031 q 287 1069 271 1053 q 326 1085 303 1085 q 364 1069 348 1085 l 529 905 q 543 868 543 889 q 527 830 543 846 q 488 814 511 814 q 451 828 467 814 l 286 993 q 271 1031 271 1009 z "},"é":{"ha":868,"x_min":54,"x_max":814,"o":"m 54 380 q 165 648 54 537 q 434 760 277 760 q 703 648 591 760 q 814 380 814 537 q 798 341 814 357 q 760 326 782 326 l 168 326 q 242 188 182 248 q 434 109 321 109 q 609 173 536 109 q 643 184 624 184 q 681 169 665 184 q 697 130 697 153 q 682 92 697 108 q 434 0 576 0 q 165 111 277 0 q 54 380 54 222 m 168 434 l 701 434 q 626 572 686 512 q 434 651 547 651 q 242 572 321 651 q 168 434 182 512 m 326 868 q 339 905 326 889 l 504 1069 q 543 1085 520 1085 q 581 1069 565 1085 q 597 1031 597 1053 q 582 993 597 1009 l 417 828 q 380 814 401 814 q 341 830 357 814 q 326 868 326 846 z "},"ê":{"ha":868,"x_min":54,"x_max":814,"o":"m 54 380 q 165 648 54 537 q 434 760 277 760 q 703 648 591 760 q 814 380 814 537 q 798 341 814 357 q 760 326 782 326 l 168 326 q 242 188 182 248 q 434 109 321 109 q 609 173 536 109 q 643 184 624 184 q 681 169 665 184 q 697 130 697 153 q 682 92 697 108 q 434 0 576 0 q 165 111 277 0 q 54 380 54 222 m 168 434 l 701 434 q 626 572 686 512 q 434 651 547 651 q 242 572 321 651 q 168 434 182 512 m 217 895 q 244 943 217 922 l 406 1050 q 434 1058 418 1058 q 462 1050 450 1058 l 624 943 q 651 895 651 922 q 635 857 651 873 q 597 841 619 841 q 563 852 577 841 l 434 938 l 305 852 q 271 841 291 841 q 233 857 249 841 q 217 895 217 873 z "},"ë":{"ha":868,"x_min":54,"x_max":814,"o":"m 54 380 q 165 648 54 537 q 434 760 277 760 q 703 648 591 760 q 814 380 814 537 q 798 341 814 357 q 760 326 782 326 l 168 326 q 242 188 182 248 q 434 109 321 109 q 609 173 536 109 q 643 184 624 184 q 681 169 665 184 q 697 130 697 153 q 682 92 697 108 q 434 0 576 0 q 165 111 277 0 q 54 380 54 222 m 168 434 l 701 434 q 626 572 686 512 q 434 651 547 651 q 242 572 321 651 q 168 434 182 512 m 203 922 q 223 970 203 950 q 271 990 243 990 q 319 970 299 990 q 339 922 339 950 q 319 874 339 895 q 271 854 299 854 q 223 874 243 854 q 203 922 203 895 m 529 922 q 549 970 529 950 q 597 990 569 990 q 645 970 625 990 q 665 922 665 950 q 645 874 665 895 q 597 854 625 854 q 549 874 569 854 q 529 922 529 895 z "},"ì":{"ha":326,"x_min":1,"x_max":272,"o":"m 1 1031 q 17 1069 1 1053 q 55 1085 33 1085 q 94 1069 77 1085 l 258 905 q 272 868 272 889 q 256 830 272 846 q 218 814 240 814 q 180 828 196 814 l 16 993 q 1 1031 1 1009 m 109 54 l 109 705 q 124 744 109 728 q 163 760 140 760 q 201 744 185 760 q 217 705 217 728 l 217 54 q 201 16 217 32 q 163 0 185 0 q 124 16 140 0 q 109 54 109 32 z "},"í":{"ha":326,"x_min":56,"x_max":327,"o":"m 56 868 q 69 905 56 889 l 234 1069 q 273 1085 250 1085 q 311 1069 295 1085 q 327 1031 327 1053 q 312 993 327 1009 l 147 828 q 110 814 132 814 q 72 830 87 814 q 56 868 56 846 m 109 54 l 109 705 q 124 744 109 728 q 163 760 140 760 q 201 744 185 760 q 217 705 217 728 l 217 54 q 201 16 217 32 q 163 0 185 0 q 124 16 140 0 q 109 54 109 32 z "},"î":{"ha":380,"x_min":-26,"x_max":408,"o":"m -26 895 q 1 943 -26 922 l 163 1050 q 191 1058 175 1058 q 218 1050 206 1058 l 380 943 q 408 895 408 922 q 392 857 408 873 q 353 841 376 841 q 319 852 334 841 l 191 938 l 62 852 q 28 841 47 841 q -11 857 5 841 q -26 895 -26 873 m 136 54 l 136 705 q 152 744 136 728 q 191 760 168 760 q 229 744 213 760 q 245 705 245 728 l 245 54 q 229 16 245 32 q 191 0 213 0 q 152 16 168 0 q 136 54 136 32 z "},"ï":{"ha":407,"x_min":-26,"x_max":435,"o":"m -26 922 q -6 970 -26 950 q 42 990 14 990 q 90 970 70 990 q 110 922 110 950 q 90 874 110 895 q 42 854 70 854 q -6 874 14 854 q -26 922 -26 895 m 149 54 l 149 705 q 165 744 149 728 q 203 760 181 760 q 242 744 226 760 q 258 705 258 728 l 258 54 q 242 16 258 32 q 203 0 226 0 q 165 16 181 0 q 149 54 149 32 m 300 922 q 320 970 300 950 q 368 990 340 990 q 415 970 395 990 q 435 922 435 950 q 415 874 435 895 q 368 854 395 854 q 320 874 340 854 q 300 922 300 895 z "},"ð":{"ha":868,"x_min":54,"x_max":814,"o":"m 54 380 q 165 648 54 537 q 434 760 277 760 q 536 747 488 760 l 465 868 l 371 813 q 330 807 352 802 q 297 832 308 813 q 291 873 286 852 q 316 907 297 895 l 411 962 l 388 1001 q 380 1031 380 1016 q 396 1069 380 1053 q 434 1085 412 1085 q 480 1060 465 1085 l 505 1017 l 597 1071 q 638 1077 616 1082 q 671 1052 661 1071 q 677 1010 683 1032 q 652 977 671 989 l 559 923 l 768 562 q 814 380 814 480 q 703 111 814 222 q 434 0 591 0 q 165 111 277 0 q 54 380 54 222 m 163 380 q 242 188 163 267 q 434 109 321 109 q 626 188 547 109 q 705 380 705 267 q 626 572 705 492 q 434 651 547 651 q 242 572 321 651 q 163 380 163 492 z "},"ñ":{"ha":814,"x_min":54,"x_max":760,"o":"m 54 54 l 54 705 q 70 744 54 728 q 109 760 86 760 q 147 744 131 760 q 163 705 163 728 l 163 661 q 407 760 264 760 q 656 656 553 760 q 760 407 760 553 l 760 54 q 744 16 760 32 q 705 0 728 0 q 667 16 683 0 q 651 54 651 32 l 651 407 q 579 579 651 508 q 407 651 508 651 q 234 579 306 651 q 163 407 163 508 l 163 54 q 147 16 163 32 q 109 0 131 0 q 70 16 86 0 q 54 54 54 32 m 136 943 q 152 982 136 966 q 190 998 168 998 q 228 983 212 998 q 304 950 260 950 q 372 974 342 950 q 516 1028 433 1028 q 670 964 606 1028 q 685 926 685 948 q 669 888 685 904 q 631 872 653 872 q 593 887 609 872 q 516 920 561 920 q 448 896 477 920 q 304 842 387 842 q 151 905 214 842 q 136 943 136 922 z "},"ò":{"ha":868,"x_min":54,"x_max":814,"o":"m 54 380 q 165 648 54 537 q 434 760 277 760 q 703 648 591 760 q 814 380 814 537 q 703 111 814 222 q 434 0 591 0 q 165 111 277 0 q 54 380 54 222 m 163 380 q 242 188 163 267 q 434 109 321 109 q 626 188 547 109 q 705 380 705 267 q 626 572 705 492 q 434 651 547 651 q 242 572 321 651 q 163 380 163 492 m 271 1031 q 287 1069 271 1053 q 326 1085 303 1085 q 364 1069 348 1085 l 529 905 q 543 868 543 889 q 527 830 543 846 q 488 814 511 814 q 451 828 467 814 l 286 993 q 271 1031 271 1009 z "},"ó":{"ha":868,"x_min":54,"x_max":814,"o":"m 54 380 q 165 648 54 537 q 434 760 277 760 q 703 648 591 760 q 814 380 814 537 q 703 111 814 222 q 434 0 591 0 q 165 111 277 0 q 54 380 54 222 m 163 380 q 242 188 163 267 q 434 109 321 109 q 626 188 547 109 q 705 380 705 267 q 626 572 705 492 q 434 651 547 651 q 242 572 321 651 q 163 380 163 492 m 326 868 q 339 905 326 889 l 504 1069 q 543 1085 520 1085 q 581 1069 565 1085 q 597 1031 597 1053 q 582 993 597 1009 l 417 828 q 380 814 401 814 q 341 830 357 814 q 326 868 326 846 z "},"ô":{"ha":868,"x_min":54,"x_max":814,"o":"m 54 380 q 165 648 54 537 q 434 760 277 760 q 703 648 591 760 q 814 380 814 537 q 703 111 814 222 q 434 0 591 0 q 165 111 277 0 q 54 380 54 222 m 163 380 q 242 188 163 267 q 434 109 321 109 q 626 188 547 109 q 705 380 705 267 q 626 572 705 492 q 434 651 547 651 q 242 572 321 651 q 163 380 163 492 m 217 895 q 244 943 217 922 l 406 1050 q 434 1058 418 1058 q 462 1050 450 1058 l 624 943 q 651 895 651 922 q 635 857 651 873 q 597 841 619 841 q 563 852 577 841 l 434 938 l 305 852 q 271 841 291 841 q 233 857 249 841 q 217 895 217 873 z "},"õ":{"ha":868,"x_min":54,"x_max":814,"o":"m 54 380 q 165 648 54 537 q 434 760 277 760 q 703 648 591 760 q 814 380 814 537 q 703 111 814 222 q 434 0 591 0 q 165 111 277 0 q 54 380 54 222 m 159 943 q 175 982 159 966 q 214 998 191 998 q 252 983 235 998 q 328 950 283 950 q 396 974 366 950 q 540 1028 456 1028 q 694 964 630 1028 q 709 926 709 948 q 693 888 709 904 q 654 872 677 872 q 616 887 633 872 q 540 920 585 920 q 472 896 501 920 q 328 842 411 842 q 174 905 238 842 q 159 943 159 922 m 163 380 q 242 188 163 267 q 434 109 321 109 q 626 188 547 109 q 705 380 705 267 q 626 572 705 492 q 434 651 547 651 q 242 572 321 651 q 163 380 163 492 z "},"ö":{"ha":868,"x_min":54,"x_max":814,"o":"m 54 380 q 165 648 54 537 q 434 760 277 760 q 703 648 591 760 q 814 380 814 537 q 703 111 814 222 q 434 0 591 0 q 165 111 277 0 q 54 380 54 222 m 163 380 q 242 188 163 267 q 434 109 321 109 q 626 188 547 109 q 705 380 705 267 q 626 572 705 492 q 434 651 547 651 q 242 572 321 651 q 163 380 163 492 m 203 922 q 223 970 203 950 q 271 990 243 990 q 319 970 299 990 q 339 922 339 950 q 319 874 339 895 q 271 854 299 854 q 223 874 243 854 q 203 922 203 895 m 529 922 q 549 970 529 950 q 597 990 569 990 q 645 970 625 990 q 665 922 665 950 q 645 874 665 895 q 597 854 625 854 q 549 874 569 854 q 529 922 529 895 z "},"÷":{"ha":651,"x_min":54,"x_max":597,"o":"m 54 488 q 70 527 54 511 q 109 543 86 543 l 543 543 q 581 527 565 543 q 597 488 597 511 q 581 450 597 466 q 543 434 565 434 l 109 434 q 70 450 86 434 q 54 488 54 466 m 258 285 q 278 333 258 313 q 326 353 298 353 q 373 333 353 353 q 393 285 393 313 q 373 237 393 257 q 326 217 353 217 q 278 237 298 217 q 258 285 258 257 m 258 692 q 278 740 258 720 q 326 760 298 760 q 373 740 353 760 q 393 692 393 720 q 373 644 393 664 q 326 624 353 624 q 278 644 298 624 q 258 692 258 664 z "},"ø":{"ha":868,"x_min":54,"x_max":814,"o":"m 54 54 q 69 92 54 76 l 130 153 q 54 380 54 250 q 165 648 54 537 q 434 760 277 760 q 662 684 564 760 l 720 742 q 760 760 737 760 q 798 744 782 760 q 814 705 814 728 q 799 667 814 684 l 739 607 q 814 380 814 509 q 703 111 814 222 q 434 0 591 0 q 207 75 304 0 l 147 16 q 109 0 131 0 q 70 16 86 0 q 54 54 54 32 m 163 380 q 207 230 163 296 l 584 606 q 434 651 518 651 q 242 572 321 651 q 163 380 163 492 m 284 153 q 434 109 350 109 q 626 188 547 109 q 705 380 705 267 q 661 530 705 464 l 284 153 z "},"ù":{"ha":814,"x_min":54,"x_max":760,"o":"m 54 353 l 54 705 q 70 744 54 728 q 109 760 86 760 q 147 744 131 760 q 163 705 163 728 l 163 353 q 234 180 163 252 q 407 109 306 109 q 579 180 508 109 q 651 353 651 252 l 651 705 q 667 744 651 728 q 705 760 683 760 q 744 744 728 760 q 760 705 760 728 l 760 54 q 744 16 760 32 q 705 0 728 0 q 667 16 683 0 q 651 54 651 32 l 651 98 q 407 0 549 0 q 158 103 261 0 q 54 353 54 207 m 271 1031 q 287 1069 271 1053 q 326 1085 303 1085 q 364 1069 348 1085 l 529 905 q 543 868 543 889 q 527 830 543 846 q 488 814 511 814 q 451 828 467 814 l 286 993 q 271 1031 271 1009 z "},"ú":{"ha":814,"x_min":54,"x_max":760,"o":"m 54 353 l 54 705 q 70 744 54 728 q 109 760 86 760 q 147 744 131 760 q 163 705 163 728 l 163 353 q 234 180 163 252 q 407 109 306 109 q 579 180 508 109 q 651 353 651 252 l 651 705 q 667 744 651 728 q 705 760 683 760 q 744 744 728 760 q 760 705 760 728 l 760 54 q 744 16 760 32 q 705 0 728 0 q 667 16 683 0 q 651 54 651 32 l 651 98 q 407 0 549 0 q 158 103 261 0 q 54 353 54 207 m 271 868 q 285 905 271 889 l 450 1069 q 488 1085 466 1085 q 527 1069 511 1085 q 543 1031 543 1053 q 528 993 543 1009 l 363 828 q 326 814 347 814 q 287 830 303 814 q 271 868 271 846 z "},"û":{"ha":814,"x_min":54,"x_max":760,"o":"m 54 353 l 54 705 q 70 744 54 728 q 109 760 86 760 q 147 744 131 760 q 163 705 163 728 l 163 353 q 234 180 163 252 q 407 109 306 109 q 579 180 508 109 q 651 353 651 252 l 651 705 q 667 744 651 728 q 705 760 683 760 q 744 744 728 760 q 760 705 760 728 l 760 54 q 744 16 760 32 q 705 0 728 0 q 667 16 683 0 q 651 54 651 32 l 651 98 q 407 0 549 0 q 158 103 261 0 q 54 353 54 207 m 190 895 q 217 943 190 922 l 379 1050 q 407 1058 391 1058 q 435 1050 422 1058 l 597 943 q 624 895 624 922 q 608 857 624 873 q 570 841 592 841 q 536 852 550 841 l 407 938 l 278 852 q 244 841 264 841 q 206 857 222 841 q 190 895 190 873 z "},"ü":{"ha":814,"x_min":54,"x_max":760,"o":"m 54 353 l 54 705 q 70 744 54 728 q 109 760 86 760 q 147 744 131 760 q 163 705 163 728 l 163 353 q 234 180 163 252 q 407 109 306 109 q 579 180 508 109 q 651 353 651 252 l 651 705 q 667 744 651 728 q 705 760 683 760 q 744 744 728 760 q 760 705 760 728 l 760 54 q 744 16 760 32 q 705 0 728 0 q 667 16 683 0 q 651 54 651 32 l 651 98 q 407 0 549 0 q 158 103 261 0 q 54 353 54 207 m 176 922 q 196 970 176 950 q 244 990 216 990 q 292 970 272 990 q 312 922 312 950 q 292 874 312 895 q 244 854 272 854 q 196 874 216 854 q 176 922 176 895 m 502 922 q 522 970 502 950 q 570 990 542 990 q 617 970 597 990 q 637 922 637 950 q 617 874 637 895 q 570 854 597 854 q 522 874 542 854 q 502 922 502 895 z "},"ý":{"ha":760,"x_min":54,"x_max":705,"o":"m 54 705 q 70 744 54 728 q 109 760 86 760 q 147 744 131 760 q 160 724 156 734 l 380 197 l 600 724 q 613 744 604 734 q 651 760 629 760 q 689 744 673 760 q 705 705 705 728 q 699 680 705 692 l 295 -290 q 282 -309 291 -300 q 243 -326 266 -326 q 205 -310 221 -326 q 189 -271 189 -294 q 195 -246 189 -258 l 321 55 l 60 680 q 54 705 54 692 m 290 868 q 303 905 290 889 l 468 1069 q 507 1085 484 1085 q 545 1069 529 1085 q 561 1031 561 1053 q 546 993 561 1009 l 381 828 q 344 814 366 814 q 306 830 321 814 q 290 868 290 846 z "},"þ":{"ha":868,"x_min":54,"x_max":814,"o":"m 54 -271 l 54 1032 q 70 1070 54 1055 q 109 1086 86 1086 q 147 1070 131 1086 q 163 1032 163 1055 l 163 647 q 434 761 277 761 q 703 650 591 761 q 814 381 814 538 q 703 113 814 224 q 434 1 591 1 q 163 115 277 1 l 163 -271 q 147 -310 163 -294 q 109 -326 131 -326 q 70 -310 86 -326 q 54 -271 54 -294 m 163 381 q 242 189 163 269 q 434 110 321 110 q 626 189 547 110 q 705 381 705 269 q 626 573 705 494 q 434 652 547 652 q 242 573 321 652 q 163 381 163 494 z "},"ÿ":{"ha":760,"x_min":54,"x_max":705,"o":"m 54 705 q 70 744 54 728 q 109 760 86 760 q 147 744 131 760 q 160 724 156 734 l 380 197 l 600 724 q 613 744 604 734 q 651 760 629 760 q 689 744 673 760 q 705 705 705 728 q 699 680 705 692 l 295 -290 q 282 -309 291 -300 q 243 -326 266 -326 q 205 -310 221 -326 q 189 -271 189 -294 q 195 -246 189 -258 l 321 55 l 60 680 q 54 705 54 692 m 149 922 q 169 970 149 950 q 217 990 189 990 q 265 970 245 990 q 285 922 285 950 q 265 874 285 895 q 217 854 245 854 q 169 874 189 854 q 149 922 149 895 m 475 922 q 495 970 475 950 q 543 990 515 990 q 590 970 570 990 q 610 922 610 950 q 590 874 610 895 q 543 854 570 854 q 495 874 515 854 q 475 922 475 895 z "},"Œ":{"ha":1465,"x_min":54,"x_max":1411,"o":"m 54 543 q 213 926 54 767 q 597 1085 372 1085 l 1357 1085 q 1395 1069 1379 1085 q 1411 1031 1411 1053 q 1395 992 1411 1008 q 1357 977 1379 977 l 760 977 l 760 597 l 1194 597 q 1233 581 1217 597 q 1249 543 1249 565 q 1233 504 1249 519 q 1194 488 1217 488 l 760 488 l 760 109 l 1356 109 q 1395 93 1379 109 q 1411 54 1411 77 q 1395 16 1411 32 q 1356 0 1379 0 l 597 0 q 213 159 372 0 q 54 543 54 318 m 163 543 q 290 236 163 363 q 597 109 417 109 l 651 109 l 651 977 l 597 977 q 290 849 417 977 q 163 543 163 722 z "},"œ":{"ha":1519,"x_min":54,"x_max":1465,"o":"m 54 380 q 165 648 54 537 q 434 760 277 760 q 703 648 591 760 q 760 577 736 615 q 817 648 783 615 q 1085 760 928 760 q 1354 648 1242 760 q 1465 380 1465 537 q 1449 341 1465 357 q 1411 326 1433 326 l 819 326 q 893 188 833 248 q 1085 109 972 109 q 1260 173 1187 109 q 1294 184 1275 184 q 1332 169 1316 184 q 1348 130 1348 153 q 1333 92 1348 108 q 1085 0 1227 0 q 817 111 928 0 q 760 182 783 144 q 703 111 736 144 q 434 0 591 0 q 165 111 277 0 q 54 380 54 222 m 163 380 q 242 188 163 267 q 434 109 321 109 q 626 188 547 109 q 705 380 705 267 q 626 572 705 492 q 434 651 547 651 q 242 572 321 651 q 163 380 163 492 m 819 434 l 1352 434 q 1277 572 1337 512 q 1085 651 1198 651 q 893 572 972 651 q 819 434 833 512 z "},"Ÿ":{"ha":868,"x_min":54,"x_max":814,"o":"m 54 1031 q 70 1069 54 1053 q 109 1085 86 1085 q 153 1063 136 1085 l 434 641 l 715 1063 q 760 1085 732 1085 q 798 1069 782 1085 q 814 1031 814 1053 q 805 1000 814 1014 l 488 526 l 488 54 q 472 16 488 32 q 434 0 456 0 q 396 16 412 0 q 380 54 380 32 l 380 526 l 63 1000 q 54 1031 54 1014 m 203 1248 q 223 1296 203 1276 q 271 1316 243 1316 q 319 1296 299 1316 q 339 1248 339 1276 q 319 1200 339 1220 q 271 1180 299 1180 q 223 1200 243 1180 q 203 1248 203 1220 m 529 1248 q 549 1296 529 1276 q 597 1316 569 1316 q 645 1296 625 1316 q 665 1248 665 1276 q 645 1200 665 1220 q 597 1180 625 1180 q 549 1200 569 1180 q 529 1248 529 1220 z "},"ˆ":{"ha":543,"x_min":54,"x_max":488,"o":"m 54 895 q 81 943 54 922 l 243 1050 q 271 1058 256 1058 q 299 1050 287 1058 l 461 943 q 488 895 488 922 q 472 857 488 873 q 434 841 456 841 q 400 852 414 841 l 271 938 l 142 852 q 109 841 128 841 q 70 857 86 841 q 54 895 54 873 z "},"˜":{"ha":651,"x_min":48,"x_max":597,"o":"m 48 943 q 64 982 48 966 q 102 998 80 998 q 140 983 124 998 q 217 950 172 950 q 285 974 255 950 q 429 1028 345 1028 q 583 964 519 1028 q 597 926 597 948 q 582 888 597 904 q 543 872 566 872 q 505 887 522 872 q 429 920 473 920 q 361 896 390 920 q 217 842 300 842 q 63 905 127 842 q 48 943 48 922 z "}," ":{"ha":705,"x_min":0,"x_max":0,"o":""}," ":{"ha":1411,"x_min":0,"x_max":0,"o":""}," ":{"ha":705,"x_min":0,"x_max":0,"o":""}," ":{"ha":1411,"x_min":0,"x_max":0,"o":""}," ":{"ha":470,"x_min":0,"x_max":0,"o":""}," ":{"ha":353,"x_min":0,"x_max":0,"o":""}," ":{"ha":235,"x_min":0,"x_max":0,"o":""}," ":{"ha":235,"x_min":0,"x_max":0,"o":""}," ":{"ha":176,"x_min":0,"x_max":0,"o":""}," ":{"ha":282,"x_min":0,"x_max":0,"o":""}," ":{"ha":78,"x_min":0,"x_max":0,"o":""},"‐":{"ha":543,"x_min":54,"x_max":488,"o":"m 54 380 q 70 418 54 402 q 109 434 86 434 l 434 434 q 472 418 456 434 q 488 380 488 402 q 472 341 488 357 q 434 326 456 326 l 109 326 q 70 341 86 326 q 54 380 54 357 z "},"‑":{"ha":543,"x_min":54,"x_max":488,"o":"m 54 380 q 70 418 54 402 q 109 434 86 434 l 434 434 q 472 418 456 434 q 488 380 488 402 q 472 341 488 357 q 434 326 456 326 l 109 326 q 70 341 86 326 q 54 380 54 357 z "},"‒":{"ha":543,"x_min":54,"x_max":488,"o":"m 54 380 q 70 418 54 402 q 109 434 86 434 l 434 434 q 472 418 456 434 q 488 380 488 402 q 472 341 488 357 q 434 326 456 326 l 109 326 q 70 341 86 326 q 54 380 54 357 z "},"–":{"ha":543,"x_min":-54,"x_max":597,"o":"m -54 380 q -38 418 -54 402 q 0 434 -22 434 l 543 434 q 581 418 565 434 q 597 380 597 402 q 581 341 597 357 q 543 326 565 326 l 0 326 q -38 341 -22 326 q -54 380 -54 357 z "},"—":{"ha":1302,"x_min":-54,"x_max":1356,"o":"m -54 380 q -38 418 -54 402 q 0 434 -22 434 l 1302 434 q 1340 418 1324 434 q 1356 380 1356 402 q 1340 341 1356 357 q 1302 326 1324 326 l 0 326 q -38 341 -22 326 q -54 380 -54 357 z "},"‘":{"ha":326,"x_min":81,"x_max":253,"o":"m 81 831 q 184 1074 81 949 q 213 1085 196 1085 q 241 1073 229 1085 q 253 1045 253 1061 q 250 1027 253 1036 q 248 732 183 867 q 253 705 253 720 q 233 657 253 677 q 185 637 213 637 q 124 677 143 637 q 81 831 81 753 z "},"’":{"ha":326,"x_min":81,"x_max":253,"o":"m 81 677 q 85 695 81 687 q 87 990 151 856 q 81 1017 81 1002 q 101 1065 81 1045 q 149 1085 121 1085 q 210 1046 191 1085 q 253 892 253 970 q 150 649 253 773 q 121 637 138 637 q 93 649 105 637 q 81 677 81 661 z "},"‚":{"ha":326,"x_min":81,"x_max":253,"o":"m 81 149 q 101 196 81 176 q 149 216 121 216 q 210 177 191 216 q 253 23 253 101 q 150 -220 253 -96 q 121 -231 138 -231 q 93 -219 105 -231 q 81 -191 81 -208 q 85 -174 81 -182 q 87 121 151 -13 q 81 149 81 134 z "},"“":{"ha":515,"x_min":54,"x_max":461,"o":"m 54 832 q 157 1075 54 951 q 186 1086 169 1086 q 214 1075 202 1086 q 226 1046 226 1063 q 222 1029 226 1037 q 220 734 156 868 q 226 707 226 722 q 206 659 226 679 q 158 639 186 639 q 97 678 116 639 q 54 832 54 754 m 290 832 q 393 1075 290 951 q 421 1086 404 1086 q 449 1075 437 1086 q 461 1046 461 1063 q 458 1029 461 1037 q 456 734 391 868 q 461 707 461 722 q 441 659 461 679 q 393 639 421 639 q 332 678 351 639 q 290 832 290 754 z "},"”":{"ha":515,"x_min":54,"x_max":461,"o":"m 54 679 q 58 696 54 688 q 60 991 124 857 q 54 1019 54 1004 q 74 1066 54 1046 q 122 1086 94 1086 q 183 1047 164 1086 q 226 893 226 971 q 123 650 226 774 q 94 639 111 639 q 66 651 78 639 q 54 679 54 663 m 290 679 q 293 696 290 688 q 295 991 359 857 q 290 1019 290 1004 q 310 1066 290 1046 q 357 1086 330 1086 q 418 1047 399 1086 q 461 893 461 971 q 358 650 461 774 q 330 639 347 639 q 301 651 313 639 q 290 679 290 663 z "},"„":{"ha":515,"x_min":54,"x_max":461,"o":"m 54 149 q 74 197 54 177 q 122 217 94 217 q 183 178 164 217 q 226 24 226 102 q 123 -219 226 -95 q 94 -231 111 -231 q 66 -219 78 -231 q 54 -191 54 -207 q 58 -173 54 -181 q 60 122 124 -12 q 54 149 54 134 m 290 149 q 310 197 290 177 q 357 217 330 217 q 418 178 399 217 q 461 24 461 102 q 358 -219 461 -95 q 330 -231 347 -231 q 301 -219 313 -231 q 290 -191 290 -207 q 293 -173 290 -181 q 295 122 359 -12 q 290 149 290 134 z "},"•":{"ha":543,"x_min":109,"x_max":434,"o":"m 109 543 q 156 657 109 610 q 271 705 204 705 q 386 657 338 705 q 434 543 434 610 q 386 428 434 475 q 271 380 338 380 q 156 428 204 380 q 109 543 109 475 z "},"…":{"ha":977,"x_min":54,"x_max":868,"o":"m 54 81 q 78 139 54 115 q 136 163 102 163 q 193 139 170 163 q 217 81 217 115 q 193 24 217 47 q 136 0 170 0 q 78 24 102 0 q 54 81 54 47 m 380 81 q 404 139 380 115 q 461 163 427 163 q 519 139 495 163 q 543 81 543 115 q 519 24 543 47 q 461 0 495 0 q 404 24 427 0 q 380 81 380 47 m 705 81 q 729 139 705 115 q 787 163 753 163 q 844 139 821 163 q 868 81 868 115 q 844 24 868 47 q 787 0 821 0 q 729 24 753 0 q 705 81 705 47 z "}," ":{"ha":282,"x_min":0,"x_max":0,"o":""},"‹":{"ha":380,"x_min":54,"x_max":326,"o":"m 54 379 q 61 406 54 393 l 221 726 q 233 743 225 735 q 271 759 249 759 q 310 743 294 759 q 326 705 326 727 q 321 682 326 692 l 170 380 l 321 77 q 326 54 326 66 q 310 16 326 32 q 271 0 294 0 q 233 16 249 0 q 221 33 225 24 l 62 350 q 54 379 54 365 z "},"›":{"ha":380,"x_min":54,"x_max":326,"o":"m 54 54 q 59 77 54 66 l 210 380 l 59 682 q 54 705 54 692 q 70 743 54 727 q 109 759 86 759 q 146 743 131 759 q 159 726 155 735 l 319 406 q 326 379 326 393 q 317 350 326 365 l 159 33 q 146 16 155 24 q 109 0 131 0 q 70 16 86 0 q 54 54 54 32 z "}," ":{"ha":353,"x_min":0,"x_max":0,"o":""},"€":{"ha":1004,"x_min":54,"x_max":958,"o":"m 54 543 q 213 926 54 767 q 597 1085 372 1085 q 942 961 791 1085 q 958 922 958 945 q 942 884 958 900 q 903 868 926 868 q 865 884 881 868 q 597 977 750 977 q 290 850 417 977 q 193 705 224 784 l 814 705 q 852 689 836 705 q 868 651 868 673 q 852 613 868 629 q 814 597 836 597 l 165 597 q 163 543 163 570 q 165 488 163 515 l 814 488 q 852 472 836 488 q 868 434 868 456 q 852 396 868 412 q 814 380 836 380 l 193 380 q 290 236 224 301 q 597 109 417 109 q 868 203 752 109 q 899 213 882 213 q 938 197 922 213 q 954 159 954 181 q 938 121 954 136 q 597 0 787 0 q 213 159 372 0 q 54 543 54 318 z "},"™":{"ha":1017,"x_min":38,"x_max":709,"o":"m 38 673 q 45 688 38 682 q 62 694 52 694 l 380 694 q 397 688 390 694 q 404 673 404 682 q 397 657 404 664 q 380 651 390 651 l 245 651 l 245 282 q 238 267 245 273 q 221 260 231 260 q 204 267 211 260 q 197 282 197 273 l 197 651 l 62 651 q 45 657 52 651 q 38 673 38 664 m 221 282 l 221 673 q 228 688 221 682 q 245 694 235 694 q 267 683 260 694 l 465 331 l 663 683 q 685 694 670 694 q 702 688 695 694 q 709 673 709 682 l 709 282 q 702 267 709 273 q 685 260 695 260 q 668 267 675 260 q 661 282 661 273 l 661 581 l 486 271 q 465 260 480 260 q 443 274 450 260 l 270 581 l 270 282 q 263 267 270 273 q 245 260 256 260 q 228 267 235 260 q 221 282 221 273 z "},"":{"ha":760,"x_min":0,"x_max":760,"o":"m 0 0 l 0 760 l 760 760 l 760 0 l 0 0 z "}}}
